<svg width="1114" height="80" viewBox="0 0 1114 80" fill="none" xmlns="http://www.w3.org/2000/svg">
<path d="M4.96306 49.2402C2.46352 49.2402 0.425914 51.0665 0.0727614 53.4539H0V54.1804V63.3343H69.7158L74.7522 53.5592H81.7884L76.7519 63.3343H132.899V54.1804V53.4539H132.826C132.473 51.0666 130.435 49.2402 127.936 49.2402H4.96306Z" fill="#4F3C2F"/>
<path d="M77.427 23.2311C72.2437 23.2317 67.2729 25.0873 63.608 28.3898C59.943 31.6924 57.8841 36.1713 57.8841 40.8416C57.8898 44.7401 59.3312 48.5268 61.9822 51.608C64.6333 54.6891 68.3442 56.8905 72.5332 57.8671L74.7521 53.559H81.7881L79.3175 58.3539C84.1484 57.9312 88.632 55.9041 91.8956 52.6671C95.1592 49.4301 96.9693 45.2148 96.9736 40.8416C96.9736 38.5288 96.468 36.2387 95.4856 34.1021C94.5033 31.9654 93.0636 30.024 91.2485 28.3887C89.4334 26.7534 87.2786 25.4562 84.9071 24.5713C82.5356 23.6864 79.9939 23.231 77.427 23.2311Z" fill="#4F3C2F"/>
<path d="M85.1263 35.611V50.9005H118.689V49.1712C118.52 49.1789 118.349 49.1851 118.179 49.1898C113.071 49.1857 108.114 47.8432 104.111 45.3795C100.108 42.9159 97.2928 39.4754 96.1222 35.6151L85.1263 35.611Z" fill="#4F3C2F"/>
<path d="M69.7017 35.4463V50.7355H36.1387V49.0065C36.3086 49.0141 36.4785 49.0204 36.6486 49.0251C41.757 49.021 46.7142 47.6785 50.7173 45.2148C54.7204 42.7511 57.5351 39.3107 58.7058 35.4504L69.7017 35.4463Z" fill="#4F3C2F"/>
<path d="M107.3 39.8028L111.411 36.9254H122.772L126.947 39.8698V50.5528H107.266L107.3 39.8028Z" fill="#4F3C2F"/>
<path d="M122.764 24.9068H111.449V38.5342H122.764V24.9068Z" fill="#4F3C2F"/>
<path d="M117.107 31.9506C123.485 31.9506 128.656 27.3779 128.656 21.7373C128.656 16.0967 123.485 11.5243 117.107 11.5243C110.728 11.5243 105.557 16.0967 105.557 21.7373C105.557 27.3779 110.728 31.9506 117.107 31.9506Z" fill="#4F3C2F"/>
<path d="M40.407 50.6642C40.407 50.6642 34.5238 48.6548 32.3268 46.5946C30.6863 45.0562 29.3084 42.9907 28.9196 40.7808C28.5782 38.8402 29.4551 36.8638 29.9905 34.967C30.799 32.1028 31.8558 29.2898 33.203 26.634C35.5112 22.0829 38.7576 18.2178 41.4778 13.7469C42.9079 11.3959 41.3489 9.16343 39.7165 7.53104C36.7346 4.54989 34.196 3.51006 30.9432 3.12321C29.1285 2.90728 26.7858 2.96494 25.6038 4.36485C22.6554 8.50134 21.3115 12.5021 19.3796 16.7506C17.5031 20.8528 15.1676 24.7538 13.5386 28.9597C12.32 32.106 11.0326 35.3024 10.6182 38.6492C10.3597 40.735 10.4314 44.2054 11.2189 46.8226C11.7963 48.7427 14.1602 52.0745 14.1602 52.0745C14.1602 52.0745 22.1053 53.0866 22.5921 52.9897C23.0788 52.8929 38.1677 53.3773 38.6544 53.0864C39.1412 52.7959 40.407 50.6642 40.407 50.6642Z" fill="#4F3C2F"/>
<path d="M259.601 22.6843V33.8971L223.491 32.2063V24.3555L259.601 22.6843Z" fill="#4F3C2F"/>
<path d="M223.532 30.6935V25.8879H204.68V30.6935H223.532Z" fill="#4F3C2F"/>
<path d="M212.382 23.4322V33.3252L193.53 32.1116V24.5943L212.382 23.4322Z" fill="#4F3C2F"/>
<path d="M255.352 28.3135C255.352 31.4078 257.262 33.9162 259.619 33.9162C261.976 33.9162 263.887 31.4078 263.887 28.3135C263.887 25.2192 261.976 22.7108 259.619 22.7108C257.262 22.7108 255.352 25.2192 255.352 28.3135Z" fill="#4F3C2F"/>
<path d="M314.521 43.2737V58.9043L264.184 56.5472V45.6034L314.521 43.2737Z" fill="#4F3C2F"/>
<path d="M264.241 54.4384V47.7396H237.962V54.4384H264.241Z" fill="#4F3C2F"/>
<path d="M248.698 44.3162V58.107L222.418 56.4152V45.9362L248.698 44.3162Z" fill="#4F3C2F"/>
<path d="M308.597 51.1209C308.597 55.4343 311.261 58.9309 314.546 58.9309C317.831 58.9309 320.495 55.4343 320.495 51.1209C320.495 46.8075 317.831 43.3109 314.546 43.3109C311.261 43.3109 308.597 46.8075 308.597 51.1209Z" fill="#4F3C2F"/>
<path d="M385.848 64.2498H418.069C418.069 64.2498 421.454 63.7563 422.89 62.911C424.219 62.1289 426.129 59.617 426.129 59.617L447.455 22.8519C447.455 22.8519 448.204 22.0029 447.232 20.1951C446.264 18.3938 444.947 18.5242 444.949 18.532H398.468C398.468 18.532 398.106 20.4854 398.468 21.3548C399.303 23.3627 404.524 25.9656 404.524 25.9656L391.487 57.9692C391.487 57.9692 387.379 59.8899 386.251 61.7104C385.8 62.4397 385.848 64.2498 385.848 64.2498ZM407.254 56.5921C407.244 56.2851 407.262 56.0311 407.262 56.0311L417.464 31.443C417.464 31.443 418.081 30.0161 418.842 29.1753C419.286 28.6851 420.351 28.5699 420.351 28.5699H429.749C429.749 28.5699 430.558 28.7125 430.83 29.413C431.184 30.3234 430.689 31.2437 430.689 31.2437L418.314 56.763C418.314 56.763 417.553 57.6602 417.049 57.9426C416.587 58.2015 415.518 58.3693 415.518 58.3693L408.202 58.1689C408.202 58.1689 407.574 57.7858 407.413 57.475C407.302 57.2599 407.264 56.8992 407.255 56.5921H407.254Z" fill="#4F3C2F" stroke="#4F3C2F" stroke-width="1.2581"/>
<path d="M447.455 22.8517H584.943V38.1917L582.325 36.6549L580.244 39.6616L577.694 37.7908L575.411 40.5971L572.793 38.8599L570.175 41.3988L567.356 39.6616L565.141 42.1338L562.188 40.6639L560.107 43.1359L557.287 41.332L554.669 43.9378L552.454 42.5347L550.306 44.9399L547.756 43.5368L545.797 45.8329L542.99 43.9378L541.043 46.5434L538.157 44.7396L536.076 47.5457L533.256 46.0758L531.223 48.4852L528.375 47.0173L525.893 49.4578L522.679 47.6788L520.021 50.6976L516.372 48.7344L514.163 51.9259L510.688 50.0133L508.412 53.1152L504.668 51.0803L502.732 54.4103L498.947 52.3526L496.383 55.3943L492.758 53.3204L490.345 56.5673L486.888 54.4543L484.113 57.6816L480.34 55.3323L477.825 58.7339L474.17 56.5607L472.081 60.2133L468.397 57.8053L466.161 61.1225L462.568 58.9593L459.969 62.4694L456.599 60.1734L453.606 63.3967L450.625 61.0096L448.112 64.2143L444.552 61.8993L442.368 65.3481L438.571 63.0332L436.388 66.0096L433.16 64.1198L430.407 67.3324L426.129 59.617L447.455 22.8517Z" stroke="#4F3C2F" stroke-width="4.40336"/>
<path d="M813.971 51.4302H859.196L866.647 54.2449V59.5397L859.299 62.2007L813.971 62.1498V51.4302Z" fill="#4F3C2F" stroke="#4F3C2F" stroke-width="3.09731" stroke-linecap="round" stroke-linejoin="round"/>
<path d="M878.126 54.2448H866.647V59.5548H878.126V54.2448Z" fill="#4F3C2F" stroke="#4F3C2F" stroke-width="2.52928" stroke-linecap="round" stroke-linejoin="round"/>
<path d="M919.642 52.4026H878.178V61.7737H919.642V52.4026Z" fill="#4F3C2F" stroke="#4F3C2F" stroke-width="2.52928" stroke-linecap="round" stroke-linejoin="round"/>
<path d="M919.541 61.7979C922.176 61.7979 924.313 59.6892 924.313 57.0879C924.313 54.4867 922.176 52.3779 919.541 52.3779C916.906 52.3779 914.77 54.4867 914.77 57.0879C914.77 59.6892 916.906 61.7979 919.541 61.7979Z" fill="#4F3C2F" stroke="#4F3C2F" stroke-width="2.47529" stroke-linecap="round" stroke-linejoin="round"/>
<path d="M864.258 29.3762H781.267V40.3767H864.258V29.3762Z" fill="#4F3C2F" stroke="#4F3C2F" stroke-width="2.52928" stroke-linecap="round" stroke-linejoin="round"/>
<path d="M891.694 32.9946H864.128V36.7579H891.694V32.9946Z" fill="#4F3C2F" stroke="#4F3C2F" stroke-width="2.52928" stroke-linecap="round" stroke-linejoin="round"/>
<path d="M671.241 3.96991C668.666 3.96991 666.593 6.03659 666.593 8.60373V17.7219H671.241V11.3936C671.241 9.90299 672.646 8.70297 674.39 8.70297H694.931C696.676 8.70297 698.08 9.90299 698.08 11.3936V44.2298C698.08 45.7204 696.676 46.9205 694.931 46.9205H674.39C672.646 46.9205 671.241 45.7204 671.241 44.2298V36.7057H666.593V47.0197C666.593 49.5868 668.666 51.6536 671.241 51.6536H698.08C700.655 51.6536 702.728 49.5868 702.728 47.0197V8.60373C702.728 6.03659 700.655 3.96991 698.08 3.96991H671.241Z" fill="#4F3C2F" stroke="#4F3C2F" stroke-width="1.00648" stroke-linecap="round" stroke-linejoin="round"/>
<path d="M673.49 33.3427H664.269V37.3786H673.49V33.3427Z" fill="#4F3C2F" stroke="#4F3C2F" stroke-width="1.00648" stroke-linecap="round" stroke-linejoin="round"/>
<path d="M673.415 16.0031H664.194V20.039H673.415V16.0031Z" fill="#4F3C2F" stroke="#4F3C2F" stroke-width="1.00648" stroke-linecap="round" stroke-linejoin="round"/>
<path d="M688.259 32.1465H681.812V73.7016H688.259V32.1465Z" fill="#4F3C2F" stroke="#4F3C2F" stroke-width="1.00648" stroke-linecap="round" stroke-linejoin="round"/>
<path d="M692.382 27.3636H677.689V29.7552H692.382V27.3636Z" fill="#4F3C2F" stroke="#4F3C2F" stroke-width="1.00648" stroke-linecap="round" stroke-linejoin="round"/>
<path d="M698.305 71.7585H670.867V74.8976H698.305V71.7585Z" fill="#4F3C2F" stroke="#4F3C2F" stroke-width="1.00648" stroke-linecap="round" stroke-linejoin="round"/>
<path d="M688.259 73.7018H681.812V79.2325H688.259V73.7018Z" fill="#4F3C2F" stroke="#4F3C2F" stroke-width="1.00648" stroke-linecap="round" stroke-linejoin="round"/>
<path d="M678.987 29.7415H691.084L688.274 32.1332H681.744L678.987 29.7415Z" fill="#4F3C2F" stroke="#4F3C2F" stroke-width="1.00648" stroke-linecap="round" stroke-linejoin="round"/>
<path d="M1004.12 44.0356L1008.61 25.6301L1012.55 25.7206L1016.87 44.0356V73.6715H1004.12V44.0356Z" fill="#4F3C2F" stroke="#4F3C2F" stroke-width="4.40336" stroke-linecap="round" stroke-linejoin="round"/>
<path d="M1017.19 58.8531C1017.19 58.8531 1044.6 58.04 1058.27 58.8531C1062.65 59.1135 1066.95 60.3072 1071.34 60.4129C1084.59 60.732 1111 57.6053 1111 57.6053L1111.16 46.8427C1111.16 46.8427 1084.82 44.5788 1071.34 45.127C1066.69 45.3158 1061.49 46.8763 1056.85 47.1547C1043.55 47.9534 1016.87 47.4666 1016.87 47.4666L1017.19 58.8531Z" stroke="#4F3C2F" stroke-width="4.78079"/>
<path d="M1035.82 14.5324L1038.91 2L1041.62 2.06155L1044.6 14.5324V34.7118H1035.82V14.5324Z" fill="#4F3C2F" stroke="#4F3C2F" stroke-width="4.40336" stroke-linecap="round" stroke-linejoin="round"/>
<path d="M1044.82 24.6222C1044.82 24.6222 1063.71 24.0686 1073.13 24.6222C1076.15 24.7995 1079.11 25.6124 1082.13 25.6843C1091.26 25.9016 1109.46 23.7726 1109.46 23.7726L1109.57 16.4443C1109.57 16.4443 1091.42 14.9027 1082.13 15.276C1078.93 15.4045 1075.35 16.4671 1072.15 16.6567C1062.99 17.2005 1044.6 16.8691 1044.6 16.8691L1044.82 24.6222Z" stroke="#4F3C2F" stroke-width="4.78079"/>
</svg>
