<svg width="335" height="76" viewBox="0 0 335 76" fill="none" xmlns="http://www.w3.org/2000/svg">
<path opacity="0.281" d="M0 1H335" stroke="#4F3C2F" stroke-width="1.8"/>
<path opacity="0.281" d="M0 75H335" stroke="#4F3C2F" stroke-width="1.8"/>
<path d="M44.0011 57.9494H68.5623C68.5623 57.9494 71.1424 57.5733 72.2369 56.9289C73.2497 56.3327 74.7062 54.418 74.7062 54.418L90.9617 26.3932C90.9617 26.3932 91.5326 25.746 90.7921 24.3681C90.0541 22.995 89.0501 23.0944 89.052 23.1003H53.6207C53.6207 23.1003 53.345 24.5893 53.6207 25.2521C54.2576 26.7826 58.2372 28.7667 58.2372 28.7667L48.2999 53.162C48.2999 53.162 45.168 54.626 44.3087 56.0137C43.9644 56.5697 44.0011 57.9494 44.0011 57.9494ZM60.3185 52.1122C60.3109 51.8782 60.3242 51.6846 60.3242 51.6846L68.1012 32.9419C68.1012 32.9419 68.5709 31.8542 69.1515 31.2133C69.49 30.8397 70.3014 30.7519 70.3014 30.7519H77.4652C77.4652 30.7519 78.0822 30.8605 78.2895 31.3945C78.5589 32.0885 78.1821 32.79 78.1821 32.79L68.749 52.2425C68.749 52.2425 68.1685 52.9264 67.7846 53.1417C67.4327 53.339 66.6177 53.4669 66.6177 53.4669L61.0411 53.3142C61.0411 53.3142 60.562 53.0222 60.4396 52.7852C60.3549 52.6213 60.3262 52.3463 60.3186 52.1122H60.3185Z" fill="#4F3C2F" stroke="#4F3C2F" stroke-width="1.2581"/>
<path d="M90.962 26.393H195.765V38.0862L193.769 36.9148L192.183 39.2067L190.239 37.7807L188.499 39.9198L186.503 38.5956L184.508 40.5309L182.359 39.2067L180.67 41.0912L178.419 39.9707L176.833 41.855L174.684 40.4799L172.688 42.4663L170.999 41.3967L169.362 43.2301L167.418 42.1606L165.925 43.9108L163.785 42.4663L162.301 44.4524L160.101 43.0775L158.515 45.2165L156.366 44.096L154.815 45.9326L152.645 44.8137L150.753 46.674L148.303 45.3179L146.277 47.619L143.495 46.1225L141.811 48.5554L139.163 47.0974L137.427 49.4619L134.574 47.9108L133.098 50.4491L130.212 48.8806L128.259 51.1992L125.495 49.6183L123.656 52.0933L121.021 50.4826L118.905 52.9427L116.029 51.1519L114.112 53.7449L111.326 52.0883L109.734 54.8725L106.925 53.037L105.221 55.5656L102.483 53.9166L100.501 56.5923L97.9322 54.8421L95.6509 57.2992L93.3784 55.4795L91.4625 57.9224L88.749 56.1577L87.0846 58.7867L84.1902 57.022L82.5259 59.2908L80.0655 57.8503L77.9671 60.2992L74.7062 54.418L90.962 26.393Z" stroke="#4F3C2F" stroke-width="4.40336"/>
<path d="M261.547 11.9999C259.584 11.9999 258.004 13.5753 258.004 15.5321V22.4826H261.547V17.6588C261.547 16.5225 262.617 15.6078 263.947 15.6078H279.605C280.935 15.6078 282.005 16.5225 282.005 17.6588V42.6887C282.005 43.825 280.935 44.7397 279.605 44.7397H263.947C262.617 44.7397 261.547 43.825 261.547 42.6887V36.9533H258.004V44.8153C258.004 46.7722 259.584 48.3476 261.547 48.3476H282.005C283.968 48.3476 285.548 46.7722 285.548 44.8153V15.5321C285.548 13.5753 283.968 11.9999 282.005 11.9999H261.547Z" fill="#4F3C2F" stroke="#4F3C2F" stroke-width="1.00648" stroke-linecap="round" stroke-linejoin="round"/>
<path d="M263.261 34.3898H256.232V37.4662H263.261V34.3898Z" fill="#4F3C2F" stroke="#4F3C2F" stroke-width="1.00648" stroke-linecap="round" stroke-linejoin="round"/>
<path d="M263.204 21.1724H256.175V24.2488H263.204V21.1724Z" fill="#4F3C2F" stroke="#4F3C2F" stroke-width="1.00648" stroke-linecap="round" stroke-linejoin="round"/>
<path d="M274.519 33.4781H269.604V65.1541H274.519V33.4781Z" fill="#4F3C2F" stroke="#4F3C2F" stroke-width="1.00648" stroke-linecap="round" stroke-linejoin="round"/>
<path d="M277.662 29.8322H266.461V31.6552H277.662V29.8322Z" fill="#4F3C2F" stroke="#4F3C2F" stroke-width="1.00648" stroke-linecap="round" stroke-linejoin="round"/>
<path d="M282.177 63.6729H261.261V66.0657H282.177V63.6729Z" fill="#4F3C2F" stroke="#4F3C2F" stroke-width="1.00648" stroke-linecap="round" stroke-linejoin="round"/>
<path d="M274.519 65.1542H269.604V69.3701H274.519V65.1542Z" fill="#4F3C2F" stroke="#4F3C2F" stroke-width="1.00648" stroke-linecap="round" stroke-linejoin="round"/>
<path d="M267.451 31.6448H276.672L274.53 33.4679H269.553L267.451 31.6448Z" fill="#4F3C2F" stroke="#4F3C2F" stroke-width="1.00648" stroke-linecap="round" stroke-linejoin="round"/>
</svg>
