<svg width="322" height="76" viewBox="0 0 322 76" fill="none" xmlns="http://www.w3.org/2000/svg">
<path d="M49.7832 49.2495C47.8779 49.2495 46.3247 50.6416 46.0555 52.4615H46V53.0153V59.993H99.142L102.981 52.5418H108.345L104.505 59.993H147.304V53.0153V52.4615H147.249C146.979 50.6417 145.426 49.2495 143.521 49.2495H49.7832Z" fill="#4F3C2F"/>
<path d="M105.02 29.4237C101.069 29.4241 97.2798 30.8386 94.4862 33.356C91.6925 35.8734 90.123 39.2876 90.123 42.8475C90.1274 45.8193 91.2261 48.7058 93.2469 51.0544C95.2677 53.4031 98.0965 55.0811 101.29 55.8256L102.981 52.5416H108.344L106.461 56.1966C110.143 55.8744 113.561 54.3292 116.049 51.8618C118.537 49.3943 119.916 46.1811 119.92 42.8475C119.92 41.0846 119.534 39.339 118.785 37.7102C118.037 36.0815 116.939 34.6017 115.556 33.3551C114.172 32.1086 112.529 31.1198 110.722 30.4453C108.914 29.7707 106.977 29.4236 105.02 29.4237Z" fill="#4F3C2F"/>
<path d="M110.889 38.8605V50.5151H136.473V49.1969C136.343 49.2028 136.214 49.2075 136.084 49.2111C132.19 49.208 128.412 48.1847 125.36 46.3067C122.309 44.4287 120.163 41.8062 119.271 38.8636L110.889 38.8605Z" fill="#4F3C2F"/>
<path d="M99.1313 38.7349V50.3893H73.5473V49.0713C73.6768 49.0772 73.8064 49.0819 73.936 49.0855C77.83 49.0824 81.6086 48.059 84.6601 46.1811C87.7116 44.3031 89.8571 41.6806 90.7494 38.738L99.1313 38.7349Z" fill="#4F3C2F"/>
<path d="M127.791 42.0557L130.925 39.8624H139.585L142.767 42.1068V50.2501H127.765L127.791 42.0557Z" fill="#4F3C2F"/>
<path d="M139.578 30.7009H130.954V41.0886H139.578V30.7009Z" fill="#4F3C2F"/>
<path d="M135.266 36.0702C140.128 36.0702 144.07 32.5846 144.07 28.285C144.07 23.9854 140.128 20.4999 135.266 20.4999C130.404 20.4999 126.463 23.9854 126.463 28.285C126.463 32.5846 130.404 36.0702 135.266 36.0702Z" fill="#4F3C2F"/>
<path d="M76.8009 50.3349C76.8009 50.3349 72.3164 48.8033 70.6417 47.2329C69.3911 46.0601 68.3409 44.4857 68.0445 42.8012C67.7842 41.3219 68.4527 39.8154 68.8608 38.3695C69.4771 36.1862 70.2827 34.042 71.3096 32.0175C73.0691 28.5484 75.5436 25.6022 77.6171 22.1942C78.7073 20.4021 77.5189 18.7003 76.2746 17.456C74.0016 15.1836 72.0665 14.3909 69.587 14.0961C68.2037 13.9315 66.418 13.9754 65.517 15.0425C63.2695 18.1956 62.2451 21.2453 60.7725 24.4838C59.342 27.6108 57.5618 30.5844 56.3201 33.7903C55.3911 36.1887 54.4098 38.6252 54.0939 41.1763C53.8969 42.7663 53.9515 45.4116 54.5519 47.4066C54.992 48.8703 56.7939 51.41 56.7939 51.41C56.7939 51.41 62.8502 52.1815 63.2212 52.1076C63.5922 52.0339 75.094 52.403 75.465 52.1813C75.836 51.9599 76.8009 50.3349 76.8009 50.3349Z" fill="#4F3C2F"/>
<path d="M243.885 29.0067V37.5539L216.36 36.265V30.2806L243.885 29.0067Z" fill="#4F3C2F"/>
<path d="M216.391 35.1118V31.4487H202.021V35.1118H216.391Z" fill="#4F3C2F"/>
<path d="M207.891 29.5768V37.118L193.521 36.1929V30.4627L207.891 29.5768Z" fill="#4F3C2F"/>
<path d="M240.646 33.2978C240.646 35.6565 242.102 37.5685 243.899 37.5685C245.696 37.5685 247.152 35.6565 247.152 33.2978C247.152 30.9391 245.696 29.027 243.899 29.027C242.102 29.027 240.646 30.9391 240.646 33.2978Z" fill="#4F3C2F"/>
<path d="M285.749 44.7013V56.616L247.379 54.8193V46.4771L285.749 44.7013Z" fill="#4F3C2F"/>
<path d="M247.422 53.2118V48.1055H227.39V53.2118H247.422Z" fill="#4F3C2F"/>
<path d="M235.574 45.496V56.0082L215.542 54.7187V46.7309L235.574 45.496Z" fill="#4F3C2F"/>
<path d="M281.233 50.683C281.233 53.9709 283.263 56.6363 285.768 56.6363C288.272 56.6363 290.302 53.9709 290.302 50.683C290.302 47.3951 288.272 44.7297 285.768 44.7297C283.263 44.7297 281.233 47.3951 281.233 50.683Z" fill="#4F3C2F"/>
<path opacity="0.281" d="M0 1H322" stroke="#4F3C2F" stroke-width="1.8"/>
<path opacity="0.281" d="M0 75H322" stroke="#4F3C2F" stroke-width="1.8"/>
</svg>
