<svg width="471" height="290" viewBox="0 0 471 290" fill="none" xmlns="http://www.w3.org/2000/svg">
<path d="M233.282 160.458H153.757V268.357H233.282V160.458Z" stroke="#4F3C2F" stroke-width="2.91185" stroke-linecap="round" stroke-linejoin="round"/>
<path d="M308.89 160.458H233.282V268.357H308.89V160.458Z" stroke="#4F3C2F" stroke-width="2.91185" stroke-linecap="round" stroke-linejoin="round"/>
<path d="M233.282 160.458H153.757V196.441H233.282V160.458Z" stroke="#4F3C2F" stroke-width="2.91185" stroke-linecap="round" stroke-linejoin="round"/>
<path d="M233.282 196.44H153.757V232.423H233.282V196.44Z" stroke="#4F3C2F" stroke-width="2.91185" stroke-linecap="round" stroke-linejoin="round"/>
<path d="M304.274 165.676H237.898V263.139H304.274V165.676Z" stroke="#4F3C2F" stroke-width="2.02564" stroke-linecap="round" stroke-linejoin="round"/>
<path d="M293.744 181.118C295.186 181.118 296.355 179.923 296.355 178.45C296.355 176.976 295.186 175.781 293.744 175.781C292.302 175.781 291.133 176.976 291.133 178.45C291.133 179.923 292.302 181.118 293.744 181.118Z" stroke="#4F3C2F" stroke-width="1.51923" stroke-linecap="round" stroke-linejoin="round"/>
<path d="M233.282 160.458H153.757V196.441H233.282V160.458Z" stroke="#4F3C2F" stroke-width="2.91185" stroke-linecap="round" stroke-linejoin="round"/>
<path d="M228.288 165.175H158.501V191.824H228.288V165.175Z" stroke="#4F3C2F" stroke-width="1.7066" stroke-linecap="round" stroke-linejoin="round"/>
<path d="M233.282 232.423H153.757V268.405H233.282V232.423Z" stroke="#4F3C2F" stroke-width="2.91185" stroke-linecap="round" stroke-linejoin="round"/>
<path d="M193.52 181.118C194.962 181.118 196.131 179.923 196.131 178.45C196.131 176.976 194.962 175.781 193.52 175.781C192.077 175.781 190.908 176.976 190.908 178.45C190.908 179.923 192.077 181.118 193.52 181.118Z" stroke="#4F3C2F" stroke-width="1.51923" stroke-linecap="round" stroke-linejoin="round"/>
<path d="M228.288 201.107H158.501V227.756H228.288V201.107Z" stroke="#4F3C2F" stroke-width="1.7066" stroke-linecap="round" stroke-linejoin="round"/>
<path d="M228.288 237.09H158.501V263.738H228.288V237.09Z" stroke="#4F3C2F" stroke-width="1.7066" stroke-linecap="round" stroke-linejoin="round"/>
<path d="M193.52 217.1C194.962 217.1 196.131 215.905 196.131 214.432C196.131 212.958 194.962 211.763 193.52 211.763C192.077 211.763 190.908 212.958 190.908 214.432C190.908 215.905 192.077 217.1 193.52 217.1Z" stroke="#4F3C2F" stroke-width="1.51923" stroke-linecap="round" stroke-linejoin="round"/>
<path d="M193.52 253.083C194.962 253.083 196.131 251.888 196.131 250.414C196.131 248.94 194.962 247.746 193.52 247.746C192.077 247.746 190.908 248.94 190.908 250.414C190.908 251.888 192.077 253.083 193.52 253.083Z" stroke="#4F3C2F" stroke-width="1.51923" stroke-linecap="round" stroke-linejoin="round"/>
<path d="M384.499 160.458H464.024V268.357H384.499V160.458Z" stroke="#4F3C2F" stroke-width="2.91185" stroke-linecap="round" stroke-linejoin="round"/>
<path d="M308.89 160.458H384.499V268.357H308.89V160.458Z" stroke="#4F3C2F" stroke-width="2.91185" stroke-linecap="round" stroke-linejoin="round"/>
<path d="M384.499 160.458H464.024V196.441H384.499V160.458Z" stroke="#4F3C2F" stroke-width="2.91185" stroke-linecap="round" stroke-linejoin="round"/>
<path d="M384.499 196.44H464.024V232.423H384.499V196.44Z" stroke="#4F3C2F" stroke-width="2.91185" stroke-linecap="round" stroke-linejoin="round"/>
<path d="M313.506 165.676H379.882V263.139H313.506V165.676Z" stroke="#4F3C2F" stroke-width="2.02564" stroke-linecap="round" stroke-linejoin="round"/>
<path d="M322.993 180.94C321.551 180.94 320.382 179.745 320.382 178.271C320.382 176.798 321.551 175.603 322.993 175.603C324.436 175.603 325.605 176.798 325.605 178.271C325.605 179.745 324.436 180.94 322.993 180.94Z" stroke="#4F3C2F" stroke-width="1.51923" stroke-linecap="round" stroke-linejoin="round"/>
<path d="M384.499 160.458H464.024V196.441H384.499V160.458Z" stroke="#4F3C2F" stroke-width="2.91185" stroke-linecap="round" stroke-linejoin="round"/>
<path d="M389.492 165.175H459.28V191.824H389.492V165.175Z" stroke="#4F3C2F" stroke-width="1.7066" stroke-linecap="round" stroke-linejoin="round"/>
<path d="M384.499 232.423H464.024V268.405H384.499V232.423Z" stroke="#4F3C2F" stroke-width="2.91185" stroke-linecap="round" stroke-linejoin="round"/>
<path d="M424.261 181.118C422.819 181.118 421.65 179.923 421.65 178.45C421.65 176.976 422.819 175.781 424.261 175.781C425.703 175.781 426.873 176.976 426.873 178.45C426.873 179.923 425.703 181.118 424.261 181.118Z" stroke="#4F3C2F" stroke-width="1.51923" stroke-linecap="round" stroke-linejoin="round"/>
<path d="M389.492 201.107H459.28V227.756H389.492V201.107Z" stroke="#4F3C2F" stroke-width="1.7066" stroke-linecap="round" stroke-linejoin="round"/>
<path d="M389.492 237.09H459.28V263.738H389.492V237.09Z" stroke="#4F3C2F" stroke-width="1.7066" stroke-linecap="round" stroke-linejoin="round"/>
<path d="M424.261 217.1C422.819 217.1 421.65 215.905 421.65 214.432C421.65 212.958 422.819 211.763 424.261 211.763C425.703 211.763 426.873 212.958 426.873 214.432C426.873 215.905 425.703 217.1 424.261 217.1Z" stroke="#4F3C2F" stroke-width="1.51923" stroke-linecap="round" stroke-linejoin="round"/>
<path d="M424.261 253.083C422.819 253.083 421.65 251.888 421.65 250.414C421.65 248.94 422.819 247.746 424.261 247.746C425.703 247.746 426.873 248.94 426.873 250.414C426.873 251.888 425.703 253.083 424.261 253.083Z" stroke="#4F3C2F" stroke-width="1.51923" stroke-linecap="round" stroke-linejoin="round"/>
<path d="M231.155 110.861H153.734V2.99998H231.155V110.861Z" stroke="#4F3C2F" stroke-width="2.91185" stroke-linecap="round" stroke-linejoin="round"/>
<path d="M226.428 105.645H158.46V8.21603H226.428V105.645Z" stroke="#4F3C2F" stroke-width="2.02564" stroke-linecap="round" stroke-linejoin="round"/>
<path d="M215.645 90.2084C217.122 90.2084 218.319 91.4027 218.319 92.876C218.319 94.3493 217.122 95.5436 215.645 95.5436C214.169 95.5436 212.971 94.3493 212.971 92.876C212.971 91.4027 214.169 90.2084 215.645 90.2084Z" stroke="#4F3C2F" stroke-width="1.51923" stroke-linecap="round" stroke-linejoin="round"/>
<path d="M231.155 110.861H308.576V2.99998H231.155V110.861Z" stroke="#4F3C2F" stroke-width="2.91185" stroke-linecap="round" stroke-linejoin="round"/>
<path d="M235.882 105.645H303.849V8.21603H235.882V105.645Z" stroke="#4F3C2F" stroke-width="2.02564" stroke-linecap="round" stroke-linejoin="round"/>
<path d="M245.596 90.3865C244.119 90.3865 242.922 91.5808 242.922 93.0541C242.922 94.5274 244.119 95.7217 245.596 95.7217C247.073 95.7217 248.27 94.5274 248.27 93.0541C248.27 91.5808 247.073 90.3865 245.596 90.3865Z" stroke="#4F3C2F" stroke-width="1.51923" stroke-linecap="round" stroke-linejoin="round"/>
<path d="M385.998 110.861H308.576V2.99998H385.998V110.861Z" stroke="#4F3C2F" stroke-width="2.91185" stroke-linecap="round" stroke-linejoin="round"/>
<path d="M381.542 29.7794H313.19V24.8116H381.542V29.7794Z" stroke="#4F3C2F" stroke-width="1.66547" stroke-linecap="round" stroke-linejoin="round"/>
<path d="M385.998 110.861H463.419V2.99998H385.998V110.861Z" stroke="#4F3C2F" stroke-width="2.91185" stroke-linecap="round" stroke-linejoin="round"/>
<path d="M390.724 105.645H458.692V8.21603H390.724V105.645Z" stroke="#4F3C2F" stroke-width="2.02564" stroke-linecap="round" stroke-linejoin="round"/>
<path d="M400.439 90.3865C398.962 90.3865 397.765 91.5808 397.765 93.0541C397.765 94.5274 398.962 95.7217 400.439 95.7217C401.916 95.7217 403.113 94.5274 403.113 93.0541C403.113 91.5808 401.916 90.3865 400.439 90.3865Z" stroke="#4F3C2F" stroke-width="1.51923" stroke-linecap="round" stroke-linejoin="round"/>
<path d="M381.542 56.8547H313.19V51.8868H381.542V56.8547Z" stroke="#4F3C2F" stroke-width="1.66547" stroke-linecap="round" stroke-linejoin="round"/>
<path d="M381.542 83.9299H313.19V78.962H381.542V83.9299Z" stroke="#4F3C2F" stroke-width="1.66547" stroke-linecap="round" stroke-linejoin="round"/>
<path d="M313.303 105.645H381.271V8.21603H313.303V105.645Z" stroke="#4F3C2F" stroke-width="2.02564" stroke-linecap="round" stroke-linejoin="round"/>
<path d="M463.411 160.455H153.737V110.865H463.411V160.455Z" stroke="#4F3C2F" stroke-width="3.99915" stroke-linecap="round" stroke-linejoin="round"/>
<path d="M469.24 160.688H147.135V155.007H469.24V160.688Z" fill="#4F3C2F" stroke="#4F3C2F" stroke-width="2.50032" stroke-linecap="round" stroke-linejoin="round"/>
<path d="M96.1782 247.771L100.961 243.876L107.257 229.864L113.465 209.29L120.084 184.743L133.253 170.697L142.697 166.077L138.144 165.053L164.606 159.911L184.17 158.908L213.642 159.66L223.473 160.915L232.252 160.25L242.85 157.501L244.623 155.728L241.52 153.377L241.209 149.254L245.909 146.15L251.274 147.968L253.27 148.988L259.433 147.347L267.758 147.245L268.636 147.684L274.405 145.865L278.92 145.364L274.468 149.565L279.923 148.875L284.375 150.067L286.758 151.76L281.804 151.948L287.057 155.329L289.85 158.477L292.271 162.808L294.506 163.887L298.497 166.059L300.137 170.316L299.25 173.686L296.279 175.193L294.284 175.105L295.659 180.16L291.845 185.215L293.841 185.437L290.56 190.802C290.56 190.802 283.066 196.921 282.889 196.921C282.711 196.921 273.622 201.577 273.622 201.577L270.252 204.326L263.243 215.345L261.55 215.47L258.668 223.16L266.755 234.219L279.386 236.206L284.928 239.797L275.839 248.488L271.27 243.907L258.854 244.189L251.11 241.054L244.118 236.194L231.702 245.381L226.26 251.477L227.5 256.041L218.972 261.747L215.018 260.75L208.353 264.362L194.785 271.013C194.785 271.013 178.15 276.609 177.649 276.609C177.147 276.609 166.424 276.42 166.424 276.42L150.748 274.163C150.748 274.163 129.073 274.737 128.718 274.471C128.363 274.205 104.42 271.9 104.42 271.9L90.9403 273.318L50.3547 284.572L25.0212 286.704L9.84628 283.945L2.57241 279.18L1.69444 273.16L7.08731 268.896L23.14 264.632L47.3447 260.493L73.556 256.48L95.5444 250.514L96.1782 247.771Z" fill="#FBEFE2" stroke="black" stroke-width="1.26602"/>
<path d="M246.154 154.492L237.935 157.569L232.262 159.158L225.683 159.782C225.683 159.782 213.623 159.026 207.588 158.761C199.783 158.418 191.974 158.05 184.161 158.023C177.656 158 171.133 157.936 164.653 158.503C158.78 159.018 152.907 159.812 147.165 161.15C142.137 162.322 132.405 165.843 132.405 165.843L135.894 167.327C135.894 167.327 127.746 172.408 124.223 175.629C121.794 177.85 119.83 180.536 117.805 183.13C116.584 184.694 114.356 187.983 114.356 187.983L116.722 187.02L113.553 192.235L110.906 198.572L115.038 196.406L112.39 203.706L109.703 212.089L107.858 219.469L105.211 231.422L102.163 239.764L100.864 242.087L98.9917 243.958L95.0495 246.454L90.8918 248.468L89.4078 249.15L94.1405 250.313L95.5445 250.514L92.095 254.445L90.4105 256.249L96.3065 255.889L97.4698 255.808C97.4698 255.808 96.8391 258.156 96.4267 259.297C96.1602 260.036 95.8715 260.77 95.5042 261.464C94.486 263.388 91.9746 266.958 91.9746 266.958L88.084 272.053L93.0978 271.611L97.9511 271.13L94.2607 275.502H102.563L114.155 275.301L133.13 267.028C133.13 267.028 124.074 267.131 119.566 267.518C114.609 267.943 104.777 269.53 104.777 269.53L111.948 263.214L102.845 264.144L101.08 264.265C101.08 264.265 103.992 260.533 105.57 258.322C108.003 254.915 111.669 247.343 111.669 247.343L99.8762 251.797L98.5927 252.238C98.5927 252.238 102.729 248.646 104.408 246.503C105.311 245.352 106.655 242.733 106.655 242.733L103.125 244.698C103.125 244.698 105.637 240.768 106.574 238.642C108.807 233.575 111.681 222.836 111.681 222.836L113.394 231.378C113.394 231.378 116.466 221.377 118.348 216.501L116.675 216.6C117.271 215.463 121.541 208.373 121.766 207.849C123.894 202.897 123.633 201.414 123.633 201.414L120.34 205.37C120.34 205.37 122.223 200.515 122.516 199.308C122.888 197.78 123.994 194.826 123.994 194.826L118.449 202.085L124.151 189.475L121.911 189.928C121.911 189.928 124.952 185.583 126.837 183.74C128.643 181.974 132.871 179.156 132.871 179.156L126.865 180.385C126.865 180.385 134.543 173.922 138.327 171.742C142.746 169.196 147.261 166.611 147.261 166.611L142.697 166.077C142.697 166.077 153.719 162.981 159.373 162.22C164.024 161.594 173.441 161.653 173.441 161.653L168.109 160.862C168.109 160.862 178.479 160.288 183.67 160.272C187.791 160.247 196.028 160.665 196.028 160.665L191.271 161.359C191.271 161.359 201.511 160.694 206.501 160.751C210.307 160.795 217.885 161.65 217.885 161.65L216.437 163.354L227.064 162.256C227.064 162.256 231.382 161.783 233.485 161.262C235.187 160.84 238.458 159.546 238.458 159.546L234.688 163.849L231.393 167.339L235.708 167.201L242.035 160.393L247.776 156.464L246.154 154.492Z" fill="#4F3C2F"/>
<path d="M160.501 193.993C160.501 193.993 169.249 196.164 172.995 198.532C177.822 201.583 182.11 205.755 185.188 210.565C187.733 214.539 189.053 219.257 190.002 223.881C190.745 227.502 191.098 231.283 190.643 234.951C190.161 238.845 188.649 242.57 187.114 246.181C185.803 249.265 183.24 251.789 182.301 255.006C181.672 257.157 181.836 261.713 181.836 261.713L181.95 265.91L177.525 262.393L179.567 268.52C179.567 268.52 176.717 268.58 175.483 269.2C174.312 269.788 173.37 270.83 172.647 271.923C172.109 272.735 171.608 274.655 171.608 274.655L194.315 269.2C194.315 269.2 199.309 270.721 201.349 272.263C203.728 274.062 207.021 279.184 207.021 279.184C207.021 279.184 203.167 278.527 201.235 278.219C200.367 278.082 198.626 277.822 198.626 277.822L200.668 280.999L190.004 280.884L171.399 281.225H156.197L155.063 276.801L154.382 274.645L153.021 276.631C153.021 276.631 150.998 272.745 149.277 271.128C147.513 269.471 142.885 267.683 142.885 267.683L142.641 270.107C142.641 270.107 136.492 262.308 133.508 258.99C130.698 255.865 127.527 253.056 124.206 250.481C121.636 248.488 116.038 245.149 116.038 245.149C116.038 245.149 128.735 250.053 134.189 253.998C137.396 256.318 142.471 262.506 142.471 262.506L142.526 260.776C142.526 260.776 147.733 262.721 150.109 264.571C151.401 265.578 153.757 268.405 153.757 268.405L151.772 257.742C151.772 257.742 156.535 259.757 158.584 261.292C160.417 262.666 163.343 266.25 163.343 266.25L163.457 263.528L169.81 267.385C169.81 267.385 169.948 265.33 170.33 264.135C170.636 263.177 171.602 261.109 171.602 261.109L174.121 263.528L170.378 250.821L177.638 257.742C177.638 257.742 178.354 249.482 179.894 245.7C180.912 243.2 184.386 238.961 184.386 238.961L183.424 244.416C183.424 244.416 186.768 237.324 186.953 233.507C187.171 229.022 184.065 220.351 184.065 220.351L186.793 223.078C186.793 223.078 182.172 212.819 179.401 209.428C175.342 204.46 175.075 204.468 171.732 201.555C168.241 198.515 160.501 193.992 160.501 193.992V193.993Z" fill="#4F3C2F"/>
<path d="M244.316 160.406C244.316 160.406 241.715 163.255 240.828 164.943C239.626 167.23 238.549 169.737 238.445 172.318C238.397 173.492 238.653 176.592 238.653 176.592L241.167 171.864L240.487 178.784C240.487 178.784 241.089 184.032 242.188 186.385C243.136 188.413 246.272 191.717 246.272 191.717C246.272 191.717 241.454 189.281 239.919 187.179C238.255 184.9 237.33 179.119 237.33 179.119L236.743 182.641L234.701 173.112L235.708 167.201L239.57 161.975L244.316 160.406Z" fill="#4F3C2F"/>
<path d="M261.677 160.629C261.677 160.629 260.519 158.239 259.23 157.54C258.068 156.911 256.434 156.529 255.282 157.177C254.336 157.71 253.885 159.021 253.855 160.107C253.827 161.121 254.406 162.102 255.315 162.551C256.773 163.271 258.914 162.971 260.116 162.241C260.774 161.842 261.677 160.629 261.677 160.629Z" fill="#4F3C2F"/>
<path d="M246.154 154.492C246.154 154.492 250.899 149.138 254.044 147.643C256.731 146.366 259.867 146.303 262.836 146.111C265.008 145.97 269.359 146.395 269.359 146.395C269.359 146.395 273.016 144.749 274.975 144.467C277.092 144.161 281.384 144.75 281.384 144.75L277.244 148.607C277.244 148.607 280.278 147.717 281.781 147.983C283.611 148.307 285.245 149.447 286.709 150.591C287.449 151.17 288.588 152.691 288.588 152.691L285.185 152.805C285.185 152.805 287.828 154.745 288.831 156.017C290.496 158.131 291.707 160.617 292.601 163.156C293.817 166.612 294.687 173.946 294.687 173.946L297.891 180.543L296.076 182.528L294.374 184.372L295.508 184.514C295.508 184.514 294.314 188.063 293.24 189.563C291.253 192.336 285.752 196.539 285.752 196.539C285.752 196.539 276.79 201.985 276.506 201.985C276.223 201.985 272.536 204.14 272.536 204.14L263.573 201.474C263.573 201.474 268.743 201.404 271.268 200.919C273.301 200.527 277.187 199.035 277.187 199.035L285.072 193.817C285.072 193.817 288.669 190.846 290.177 189.08C290.849 188.293 291.907 186.5 291.907 186.5L288.447 186.585C288.447 186.585 292.099 183.255 293.466 181.224C293.92 180.551 294.487 179.012 294.487 179.012C294.487 179.012 293.042 176.333 292.672 174.872C291.799 171.424 291.968 167.354 290.908 163.755C290.227 161.444 288.059 157.694 288.059 157.694L288.71 161.473C288.71 161.473 286.128 156.862 284.271 155.031C283.285 154.058 280.816 152.722 280.816 152.722L277.56 150.804H283.295C283.295 150.804 280.318 149.804 278.322 149.921C276.312 150.04 272.346 150.804 272.346 150.804L276.276 146.592C276.276 146.592 272.346 147.595 272.105 147.595C271.865 147.595 268.856 149.48 268.856 149.48C268.856 149.48 263.783 148.674 261.236 148.798C259.075 148.902 256.816 149.082 254.858 150.002C252.847 150.946 249.724 154.253 249.724 154.253L247.776 156.465L246.154 154.492Z" fill="#4F3C2F"/>
<path d="M274.712 202.844C274.712 202.844 272.892 203.966 272.2 204.76C270.356 206.876 269.15 209.617 267.629 211.975C266.031 214.452 262.84 219.228 262.84 219.228L262.118 216.822L258.669 223.159L255.299 227.571V224.683C255.299 224.683 254.041 227.207 252.493 229.081C249.35 232.883 244.658 237.544 244.39 237.759C243.989 238.08 238.684 242.756 235.566 244.898C233.759 246.14 229.87 248.187 229.87 248.187L226.26 251.476L225.298 248.107L222.169 240.406L228.574 235.148L225.96 241.353C225.96 241.353 227.27 241.155 227.857 240.87C231.615 239.051 237.812 233.267 237.812 233.267C237.812 233.267 235.053 237.887 233.452 240.044C232.625 241.158 232.357 241.529 232.357 241.529C232.357 241.529 237.946 238.589 241.823 235.191C245.265 232.176 248.531 228.915 251.369 225.325C253.769 222.287 257.626 215.538 257.626 215.538L258.027 218.827L262.042 211.116C262.042 211.116 262.257 212.215 262.26 212.771C262.26 213.377 262.258 214.235 262.258 214.235C262.258 214.235 266.316 207.468 268.886 204.226C269.508 203.441 270.947 202.04 270.947 202.04L274.712 202.844Z" fill="#4F3C2F"/>
<path d="M209.896 196.767C209.896 196.767 216.073 204.526 218.313 208.913C219.275 210.798 220.195 212.817 220.42 214.902C220.7 217.507 220.164 222.758 220.164 222.758C220.164 222.758 219.345 228.124 219.963 231.822C220.801 236.837 225.297 248.107 225.297 248.107L227.904 253.361L233.921 253.04C233.921 253.04 236.167 253.362 237.049 254.003C239.06 255.463 241.261 259.899 241.341 260.1C241.422 260.301 241.622 261.864 241.622 261.864L237.611 259.338L234.041 258.174L232.036 258.375C232.036 258.375 234.214 259.231 235.124 259.939C236.859 261.29 239.456 264.913 239.456 264.913L240.098 265.796C240.098 265.796 237.008 265.486 235.485 265.194C233.611 264.833 229.938 263.777 229.938 263.777C229.938 263.777 231.282 264.883 232.156 265.594C232.94 266.233 233.964 266.516 234.783 267.107C235.487 267.616 236.728 268.844 236.728 268.844C236.728 268.844 233.742 269.358 232.236 269.325C229.122 269.256 227.114 268.738 222.997 267.926C222.12 267.754 220.565 266.798 220.565 266.798L215.018 260.749C215.018 260.749 208.581 254.935 205.038 252.431C202.979 250.976 200.787 249.917 199.003 248.239C197.433 246.763 194.995 243.165 194.995 243.165L198.115 243.902L199.507 244.256C199.507 244.256 196.937 241.256 195.938 239.564C195.097 238.141 194.45 236.6 193.932 235.031C193.627 234.107 193.291 232.184 193.291 232.184C193.291 232.184 195.188 235.116 196.058 236.235C198.086 238.844 200.16 241.473 202.676 243.615C204.333 245.026 208.171 247.145 208.171 247.145L203.639 246.985L206.283 249.746L219 260.061L216.835 255.689C216.835 255.689 218.575 257.383 219.642 257.922C220.161 258.184 221.327 258.377 221.327 258.377C221.327 258.377 220.36 255.808 220.003 254.486C219.492 252.59 218.84 248.71 218.84 248.71L224.054 255.809C224.054 255.809 224.116 254.282 223.999 253.532C223.849 252.565 223.17 250.715 223.17 250.715L225.336 253.684L224.494 251.557L220.202 242.413L216.675 232.265L216.003 227.028L217.811 230.958L217.761 227.57L217.516 223.401L218.559 225.808C218.559 225.808 218.752 217.854 217.756 214.056C217.134 211.678 214.588 207.397 214.588 207.397L209.896 196.767Z" fill="#4F3C2F"/>
<path d="M117.643 225.625L113.352 235.433C113.352 235.433 116.488 232.628 117.251 230.744C117.894 229.157 117.643 225.625 117.643 225.625Z" fill="#4F3C2F"/>
<path d="M122.845 220.573L119.316 230.68C119.316 230.68 122.228 227.644 122.845 225.707C123.365 224.076 122.845 220.573 122.845 220.573Z" fill="#4F3C2F"/>
<path d="M124.675 211.044C124.675 211.044 120.922 217.178 120.548 221.421C120.481 222.195 119.849 224.862 119.849 224.862C119.849 224.862 123.831 220.711 124.675 218.063C125.385 215.834 124.675 211.044 124.675 211.044Z" fill="#4F3C2F"/>
<path d="M259.952 219.95C259.952 219.95 261.597 224.684 262.88 226.969C264.185 229.294 267.601 233.522 267.601 233.522C267.601 233.522 277.073 235.11 277.527 235.11C277.981 235.11 281.044 235.96 281.044 235.96C281.044 235.96 286.229 239.447 288.135 241.86C289.429 243.499 290.241 245.498 290.914 247.475C291.789 250.049 292.502 255.474 292.502 255.474L288.815 251.503L289.853 255.692L289.967 258.554L286.845 254.744L283.713 251.395L284.265 255.209L284.144 258.759C284.144 258.759 282.279 256.782 282.052 256.611C281.824 256.442 277.982 251.843 277.982 251.843C277.982 251.843 275.54 251.101 274.579 250.312C272.965 248.986 270.948 245.206 270.948 245.206C270.948 245.206 263.763 245.501 260.171 245.661C258.545 245.733 256.907 246.099 255.293 245.888C254.427 245.774 252.797 245.094 252.797 245.094L255.2 244.43C255.2 244.43 252.135 244.081 250.755 243.449C247.943 242.16 243.324 237.89 243.324 237.89L246.047 233.692C246.047 233.692 248.498 237.967 250.585 239.308C252.191 240.341 254.585 241.753 256.427 242.258C258.488 242.822 262.837 242.144 262.837 242.144L261.362 243.164L271.742 242.484L275.089 244.98L273.417 241.127C273.417 241.127 274.448 241.394 275.611 241.247C276.211 241.17 278.692 240.473 278.692 240.473L275.981 238.481L277.799 238.37L280.873 238.796L275.6 237.211C275.6 237.211 278.209 236.993 277.982 236.993C277.754 236.993 273.253 235.895 270.835 235.565C269.053 235.322 265.446 235.282 265.446 235.282L260.908 230.12L262.61 230.857C262.61 230.857 259.521 227.954 258.356 226.206C257.719 225.25 256.904 223.081 256.904 223.081L259.952 219.95Z" fill="#4F3C2F"/>
<path d="M213.941 258.877C213.941 258.877 211.476 261.174 210.084 262.11C208.806 262.969 206 264.265 206 264.265C206 264.265 209.914 259.898 209.176 260.182C208.439 260.465 205.696 262.266 203.788 262.904C201.547 263.653 196.81 264.152 196.81 264.152C196.81 264.152 201.036 264.861 200.809 264.975C200.582 265.089 198.706 266.013 197.633 266.478C196.745 266.863 186.373 269.314 186.373 269.314L192.67 269.938L198.626 271.413L202.313 270.165L209.119 266.478L216.04 261.543L213.941 258.877Z" fill="#4F3C2F"/>
<path d="M254.441 148.947C254.441 148.947 251.122 145.965 249.042 145.427C247.226 144.957 245.153 145.092 243.427 145.828C242.034 146.423 240.751 147.53 240.058 148.877C239.528 149.906 239.403 151.197 239.657 152.326C239.877 153.311 240.573 154.155 241.261 154.893C241.757 155.425 243.026 156.177 243.026 156.177L246.154 154.492C246.154 154.492 243.656 154.147 242.866 153.288C242.32 152.697 242.128 151.761 242.224 150.962C242.321 150.142 242.78 149.31 243.427 148.797C244.418 148.01 245.817 147.639 247.077 147.754C248.518 147.885 250.967 149.679 250.967 149.679C250.967 149.679 248.392 149.269 247.117 149.439C246.04 149.582 244.029 150.482 244.029 150.482L247.919 150.964L245.753 152.407H249.363L254.441 148.947Z" fill="#4F3C2F"/>
<path d="M292.271 162.808C292.271 162.808 295.147 163.309 296.416 163.979C297.745 164.681 299.041 165.622 299.876 166.872C300.614 167.976 301.118 169.346 301.067 170.672C301.016 171.995 300.441 173.344 299.592 174.36C299.021 175.044 298.166 175.485 297.323 175.778C296.515 176.059 294.771 176.061 294.771 176.061L294.645 173.524C294.645 173.524 296.413 173.66 297.039 173.112C297.821 172.426 298.413 171.371 298.457 170.332C298.498 169.332 298.013 168.277 297.322 167.553C296.488 166.677 294.032 166.021 294.032 166.021L292.671 165.852L293.522 167.649C293.522 167.649 294.705 167.83 295.207 168.13C295.815 168.494 296.33 169.043 296.691 169.654C296.856 169.93 296.971 170.577 296.971 170.577C296.971 170.577 296.006 169.835 295.447 169.614C295.182 169.51 294.605 169.455 294.605 169.455C294.605 169.455 295.179 170.21 295.287 170.658C295.36 170.957 295.246 171.781 295.246 171.58C295.246 171.379 294.003 170.056 294.003 170.056L292.599 167.449L291.785 164.238L292.271 162.808Z" fill="#4F3C2F"/>
<path d="M95.9455 249.551L75.6098 255.006L30.0462 262.867C30.0462 262.867 14.3762 264.705 7.264 267.841C4.80666 268.924 2.03801 270.172 0.686067 272.493C-0.1255 273.887 -0.119814 275.727 0.204545 277.306C0.671795 279.581 1.80861 281.895 3.57397 283.403C7.51021 286.765 13.052 287.945 18.1738 288.697C26.6529 289.943 35.3246 288.189 43.8435 287.254C50.7389 286.496 57.607 285.385 64.3796 283.884C74.4797 281.646 97.0685 274.94 97.0685 274.94L97.9511 271.13L94.0604 269.124L68.9043 265.694L87.8835 271.771C85.1157 273.256 73.2036 276.023 73.2036 276.023L48.2104 271.597L67.5883 277.306L48.8174 281.638L24.6715 278.67C24.6715 278.67 41.8381 282.521 41.1966 282.681C40.5547 282.841 30.8838 284.229 25.0725 284.205C20.1176 284.182 14.8774 284.368 10.3122 282.44C7.33445 281.183 3.48043 279.497 2.77184 276.344C2.42031 274.78 3.70543 273.126 4.85762 272.012C7.33643 269.615 11.0327 268.871 14.3233 267.841C25.2931 264.405 36.8579 263.275 48.1756 261.262C58.4157 259.441 68.896 258.84 78.9792 256.289C84.6483 254.855 96.7878 251.556 96.7878 251.556L95.9455 249.551Z" fill="#4F3C2F"/>
<path d="M115.697 272.604C117.154 268.146 128.567 271.927 133.508 272.037C138.448 272.146 139.826 272.23 143.207 272.206C146.589 272.182 152.649 271.778 152.649 271.778L157.472 278.037C157.472 278.037 147.734 277.573 140.703 277.31C133.455 277.038 114.155 275.301 114.155 275.301L115.697 272.604Z" fill="#4F3C2F"/>
<path d="M282.916 168.573C282.916 168.573 285.082 167.793 286.165 167.991C287.738 168.279 288.912 169.091 289.155 170.672C289.339 171.859 288.668 172.972 287.567 173.452C286.447 173.94 285.091 173.776 284.179 172.963C283.042 171.95 282.916 168.573 282.916 168.573Z" fill="#4F3C2F"/>
<path d="M254.73 158.833C255.432 159.335 256.253 159.389 256.563 158.955C256.872 158.521 256.554 157.763 255.852 157.261C255.15 156.76 254.329 156.705 254.019 157.139C253.709 157.573 254.027 158.332 254.73 158.833Z" fill="white"/>
<path d="M283.985 169.165C284.687 169.667 285.508 169.721 285.817 169.287C286.127 168.853 285.809 168.095 285.107 167.593C284.405 167.092 283.584 167.037 283.274 167.471C282.964 167.906 283.282 168.664 283.985 169.165Z" fill="white"/>
<path d="M267.345 164.646C265.966 164.721 265.083 165.195 264.368 166.021C263.89 166.573 263.748 167.39 263.744 168.12C263.744 169.024 263.889 170.046 264.481 170.729C264.725 171.011 265.275 171.24 265.502 171.183C265.73 171.128 266.239 169.964 266.239 169.964L267.09 170.616C267.09 170.616 266.666 171.538 266.636 172.033C266.607 172.533 266.704 173.057 266.92 173.508C267.385 174.478 269.01 175.966 269.01 175.966C269.01 175.966 271.424 175.606 272.479 175.04C273.057 174.73 273.433 174.266 273.727 173.679C273.937 173.255 274.067 172.318 274.067 172.318L275.145 172.203L274.917 173.792C274.917 173.792 275.834 173.99 276.222 173.847C276.922 173.593 277.696 173.172 278.15 172.542C278.68 171.81 279.041 170.824 278.888 169.933C278.709 168.884 277.977 168.05 277.185 167.364C275.8 166.165 273.922 165.503 272.195 165.055C270.331 164.582 269.249 164.541 267.345 164.644L267.345 164.646Z" fill="#4F3C2F"/>
<path d="M269.449 175.18C269.449 175.18 267.609 176.343 266.567 176.568C265.78 176.738 264.949 176.629 264.152 176.513C263.275 176.387 261.588 175.816 261.588 175.816L262.677 177.33C262.677 177.33 259.917 177.301 258.606 176.929C257.41 176.588 255.257 175.285 255.257 175.285C255.257 175.285 256.672 176.994 257.423 177.571C258.265 178.218 258.871 178.507 259.909 178.734C261.061 178.985 262.263 179.002 263.439 178.935C265.318 178.746 267.04 178.457 268.613 177.451L269.449 175.18Z" fill="#4F3C2F"/>
<path d="M269.373 175.153C269.373 175.153 270.088 177.209 270.763 178.034C271.273 178.657 271.992 179.089 272.688 179.495C273.453 179.941 275.128 180.546 275.128 180.546L273.333 181.053C273.333 181.053 275.51 182.749 276.769 183.273C277.917 183.752 280.413 184.072 280.413 184.072C280.413 184.072 278.241 184.529 277.295 184.513C276.233 184.487 275.578 184.343 274.625 183.875C273.567 183.355 272.617 182.619 271.738 181.834C270.385 180.516 269.218 179.218 268.613 177.451L269.373 175.153Z" fill="#4F3C2F"/>
<path d="M272.988 182.448C272.988 182.448 271.932 185.379 270.982 186.579C270.404 187.31 269.823 188.075 269.014 188.514C268.053 189.037 266.853 189.207 265.808 189.226C264.498 189.25 263.043 188.833 262.026 187.98C261.198 187.286 260.811 186.158 260.488 185.127C260.202 184.217 260.154 183.237 260.165 182.282C260.189 181.077 260.656 178.701 260.656 178.701L261.896 178.328C261.896 178.328 261.238 181.771 261.524 183.463C261.72 184.616 262.073 185.873 262.915 186.685C263.201 186.96 263.864 187.277 264.024 187.117C264.136 187.006 266.863 180.253 268.18 177.437C268.533 176.969 268.951 177.653 268.951 177.653L265.34 187.621C265.34 187.621 266.223 187.865 266.665 187.803C267.529 187.679 268.123 187.55 269.057 186.74C270.648 185.358 272.185 181.245 272.185 181.245L272.988 182.448Z" fill="#4F3C2F"/>
<path d="M16.0407 266.524C17.5027 266.717 42.7758 268.572 42.7758 268.572L26.5609 264.577L16.0407 266.524Z" fill="#4F3C2F"/>
<path d="M54.465 259.625C55.9273 259.819 81.2008 261.673 81.2008 261.673L64.0713 258.442L54.465 259.625Z" fill="#4F3C2F"/>
<path d="M19.9384 284.125L28.7626 284.284C28.7626 284.284 35.0479 277.604 38.5492 274.658C40.0595 273.388 43.3624 271.209 43.3624 271.209L38.4084 277.947L37.1855 279.792L48.8174 281.637C48.8174 281.637 51.8455 277.57 53.6304 275.781C56.2999 273.105 62.3741 268.561 62.3741 268.561L56.9994 276.423C56.1828 277.594 55.1978 279.416 54.5586 280.691L65.7433 277.546L50.1807 272.251L73.2037 276.022L80.4232 263.588L78.5784 274.418L87.8835 271.77L79.8616 268.481L90.6912 268.963L91.8141 275.219C91.8141 275.219 62.6149 282.118 61.9731 282.118C61.5383 282.118 40.6544 282.851 40.6544 282.851L35.5432 281.269L33.2547 283.883L20.2594 286.61L19.9384 284.125Z" fill="#4F3C2F"/>
<path d="M4.56937 268.968C5.69808 269.119 25.2085 270.549 25.2085 270.549L12.6908 267.465L4.56937 268.968Z" fill="#4F3C2F"/>
<path d="M238.102 227.949L230.524 235.512C230.524 235.512 234.468 234.046 235.867 232.571C237.044 231.33 238.102 227.949 238.102 227.949Z" fill="#4F3C2F"/>
<path d="M244.789 225.146L237.812 233.267C237.812 233.267 241.632 231.503 242.914 229.926C243.993 228.598 244.789 225.146 244.789 225.146Z" fill="#4F3C2F"/>
<path d="M249.973 216.944C249.973 216.944 244.239 221.284 242.341 225.097C241.995 225.793 240.434 228.046 240.434 228.046C240.434 228.046 245.656 225.635 247.409 223.478C248.885 221.663 249.973 216.944 249.973 216.944Z" fill="#4F3C2F"/>
<path d="M135.865 183.823L143.443 176.259C143.443 176.259 139.499 177.725 138.1 179.2C136.923 180.442 135.865 183.823 135.865 183.823Z" fill="#4F3C2F"/>
<path d="M129.178 186.625L136.156 178.505C136.156 178.505 132.335 180.268 131.053 181.846C129.974 183.174 129.178 186.625 129.178 186.625Z" fill="#4F3C2F"/>
<path d="M123.994 194.828C123.994 194.828 129.728 190.488 131.626 186.674C131.972 185.979 133.534 183.726 133.534 183.726C133.534 183.726 128.311 186.137 126.558 188.293C125.082 190.109 123.994 194.828 123.994 194.828Z" fill="#4F3C2F"/>
<path d="M295.072 277.417C302.2 277.626 306.692 277.829 306.692 277.829C306.692 277.829 322.834 277.678 330.576 274.055C336.001 271.517 340.416 268.054 343.252 263.291C346.722 257.466 348.334 250.108 347.442 243.386C346.478 236.119 343.037 228.547 337.459 223.792C333.018 220.006 326.875 218.247 320.8 218.415C315.428 218.563 309.989 219.923 305.854 223.112C302.553 225.658 300.216 229.494 299.197 233.699C298.472 236.694 299.774 243.447 299.774 243.447C299.774 243.447 295.754 237.901 296.839 231.288C297.749 225.741 301.763 220.506 306.483 217.452C311.856 213.974 318.984 212.639 325.35 213.295C330.992 213.876 337.322 216.155 341.598 219.881C347.336 224.88 351.373 232.213 352.9 239.648C354.468 247.281 353.465 255.781 350.236 262.872C347.673 268.501 343.13 273.057 337.719 276.571C335.456 278.041 333.175 278.929 330.833 279.498C326.686 280.507 322.351 280.514 317.594 280.973C298.052 282.86 295.072 277.417 295.072 277.417Z" fill="#4F3C2F"/>
<path d="M305.214 278.452C309.307 278.572 313.535 279.185 313.535 279.185C313.535 279.185 322.432 277.307 326.509 275.388C329.125 274.156 331.543 273.384 333.69 270.523C335.838 267.662 337.787 262.957 337.356 258.926C336.917 254.815 334.34 250.849 331.202 248.156C328.633 245.952 325.21 244.419 321.721 244.515C318.637 244.599 315.23 245.578 313.054 247.766C311.214 249.614 310.13 252.63 310.343 255.105C310.964 262.31 317.345 261.963 317.345 261.963C317.345 261.963 307.625 263.892 307.729 252.683C307.759 249.455 310.408 245.825 313.118 244.071C316.204 242.074 320.741 241.315 324.397 241.692C327.637 242.026 332.157 243.965 334.612 246.104C337.907 248.975 340.232 251.761 341.477 255.408C342.667 258.891 342.558 262.861 341.727 266.446C340.801 270.439 339.175 275.345 336.069 277.362C332.468 279.701 326.33 280.715 320.581 281.201C315.479 281.632 308.803 281.338 304.698 281.184C293.625 280.773 305.214 278.449 305.214 278.449V278.452Z" fill="#4F3C2F"/>
<path d="M237.721 273.514C236.341 273.514 235.216 274.527 235.021 275.852H234.981V276.255V281.332H273.472L276.252 275.91H280.137L277.356 281.332H308.355V276.255V275.852H308.315C308.12 274.528 306.995 273.514 305.615 273.514H237.721Z" fill="#4F3C2F"/>
<path d="M277.729 259.088C274.867 259.088 272.123 260.117 270.099 261.949C268.076 263.781 266.939 266.266 266.939 268.856C266.942 271.019 267.738 273.119 269.202 274.828C270.665 276.537 272.714 277.758 275.027 278.3L276.252 275.91H280.137L278.773 278.57C281.44 278.335 283.915 277.211 285.717 275.415C287.519 273.62 288.518 271.282 288.521 268.856C288.521 267.573 288.242 266.303 287.699 265.118C287.157 263.933 286.362 262.856 285.36 261.949C284.358 261.042 283.168 260.322 281.859 259.831C280.549 259.34 279.146 259.088 277.729 259.088Z" fill="#4F3C2F"/>
<path d="M281.98 265.954V274.435H300.51V273.476C300.416 273.48 300.323 273.484 300.229 273.486C297.408 273.484 294.671 272.739 292.461 271.373C290.251 270.006 288.697 268.098 288.051 265.957L281.98 265.954Z" fill="#4F3C2F"/>
<path d="M273.464 265.863V274.344H254.933V273.385C255.027 273.389 255.121 273.393 255.215 273.395C258.035 273.393 260.772 272.648 262.982 271.282C265.192 269.915 266.746 268.007 267.393 265.866L273.464 265.863Z" fill="#4F3C2F"/>
<path d="M294.222 268.28L296.492 266.684H302.764L305.069 268.317V274.243H294.203L294.222 268.28Z" fill="#4F3C2F"/>
<path d="M302.76 260.017H296.513V267.576H302.76V260.017Z" fill="#4F3C2F"/>
<path d="M299.636 263.924C303.158 263.924 306.013 261.388 306.013 258.259C306.013 255.13 303.158 252.594 299.636 252.594C296.115 252.594 293.26 255.13 293.26 258.259C293.26 261.388 296.115 263.924 299.636 263.924Z" fill="#4F3C2F"/>
<path d="M257.29 274.304C257.29 274.304 254.042 273.19 252.829 272.047C251.923 271.194 251.162 270.048 250.948 268.822C250.759 267.746 251.243 266.649 251.539 265.597C251.985 264.009 252.569 262.448 253.313 260.975C254.587 258.451 256.379 256.307 257.881 253.827C258.671 252.523 257.81 251.284 256.909 250.379C255.262 248.725 253.861 248.149 252.065 247.934C251.063 247.814 249.77 247.846 249.117 248.623C247.489 250.917 246.747 253.136 245.681 255.493C244.645 257.768 243.355 259.932 242.456 262.265C241.783 264.01 241.072 265.783 240.843 267.64C240.701 268.797 240.74 270.722 241.175 272.173C241.494 273.239 242.799 275.087 242.799 275.087C242.799 275.087 247.185 275.648 247.454 275.594C247.723 275.541 256.054 275.809 256.322 275.648C256.591 275.487 257.29 274.304 257.29 274.304Z" fill="#4F3C2F"/>
</svg>
