<svg width="279" height="92" viewBox="0 0 279 92" fill="none" xmlns="http://www.w3.org/2000/svg">
<path d="M60.464 66L63.4711 63.551L67.4293 54.7424L71.3319 41.8084L75.4931 26.3761L83.7717 17.5455L89.7088 14.6413L86.8465 13.9978L103.482 10.7651L115.782 10.1343L134.31 10.6075L140.49 11.3964L146.01 10.9781L152.672 9.24991L153.787 8.135L151.836 6.65757L151.64 4.06524L154.595 2.11385L157.968 3.25668L159.223 3.89794L163.097 2.86653L168.331 2.80222L168.883 3.07818L172.51 1.93488L175.348 1.61963L172.549 4.26093L175.979 3.82718L178.778 4.57634L180.276 5.64059L177.161 5.75893L180.463 7.88436L182.22 9.86353L183.742 12.5865L185.147 13.2644L187.655 14.6303L188.687 17.3063L188.129 19.4248L186.262 20.3725L185.007 20.3171L185.871 23.495L183.474 26.6727L184.728 26.8121L182.666 30.1851C182.666 30.1851 177.955 34.0318 177.843 34.0318C177.732 34.0318 172.017 36.9587 172.017 36.9587L169.899 38.687L165.493 45.6146L164.428 45.693L162.617 50.5273L167.7 57.4801L175.641 58.729L179.125 60.9869L173.411 66.4504L170.539 63.5708L162.733 63.7481L157.865 61.777L153.469 58.7218L145.664 64.4971L142.242 68.3295L143.022 71.1988L137.661 74.7861L135.175 74.159L130.985 76.4298L122.455 80.6111C122.455 80.6111 111.997 84.129 111.682 84.129C111.367 84.129 104.626 84.0108 104.626 84.0108L94.7703 82.5917C94.7703 82.5917 81.1439 82.9527 80.9209 82.7854C80.6979 82.6182 65.6453 81.1686 65.6453 81.1686L57.1712 82.0606L31.6563 89.1356L15.73 90.476L6.18996 88.7415L1.61715 85.7455L1.06522 81.9609L4.45553 79.2801L14.5474 76.5995L29.764 73.9977L46.2423 71.4747L60.0657 67.7245L60.464 66Z" fill="#FBEFE2" stroke="black" stroke-width="1.79634"/>
<path d="M154.749 7.35791L149.582 9.29257L146.016 10.291L141.879 10.6833C141.879 10.6833 134.298 10.2082 130.504 10.0414C125.597 9.82591 120.688 9.59474 115.776 9.5779C111.687 9.56281 107.586 9.52316 103.512 9.87949C99.8196 10.2031 96.1274 10.7022 92.5179 11.5436C89.3569 12.2805 83.2387 14.4938 83.2387 14.4938L85.4323 15.4268C85.4323 15.4268 80.31 18.6209 78.0948 20.6464C76.568 22.0423 75.3331 23.7311 74.0602 25.3617C73.2924 26.3453 71.8917 28.4128 71.8917 28.4128L73.3794 27.8076L71.3873 31.0855L69.7232 35.0697L72.3203 33.708L70.6563 38.2973L68.9668 43.5673L67.8068 48.2069L66.1426 55.721L64.2263 60.9659L63.4098 62.4259L62.2328 63.6027L59.7546 65.1716L57.1407 66.4375L56.2077 66.8662L59.1831 67.5974L60.0657 67.7237L57.8972 70.195L56.8381 71.3295L60.5448 71.1027L61.276 71.0517C61.276 71.0517 60.8796 72.5275 60.6204 73.2455C60.4528 73.7095 60.2712 74.171 60.0403 74.607C59.4002 75.8167 57.8214 78.0618 57.8214 78.0618L55.3756 81.264L58.5276 80.9865L61.5787 80.684L59.2586 83.4326H64.4783L71.7655 83.3061L83.6948 78.1057C83.6948 78.1057 78.0011 78.17 75.167 78.4132C72.0509 78.6809 65.8702 79.6781 65.8702 79.6781L70.3778 75.7079L64.655 76.2923L63.5455 76.3681C63.5455 76.3681 65.3761 74.022 66.3686 72.632C67.898 70.4902 70.2028 65.7301 70.2028 65.7301L62.7888 68.5304L61.982 68.8078C61.982 68.8078 64.5822 66.5492 65.6382 65.202C66.2056 64.4781 67.0503 62.8318 67.0503 62.8318L64.8313 64.0673C64.8313 64.0673 66.4108 61.5963 66.9999 60.2597C68.4037 57.0747 70.2102 50.3235 70.2102 50.3235L71.287 55.6935C71.287 55.6935 73.2184 49.4064 74.4016 46.3407L73.3499 46.403C73.7246 45.6884 76.4086 41.2309 76.5503 40.9016C77.8883 37.7885 77.7239 36.8559 77.7239 36.8559L75.6538 39.3428C75.6538 39.3428 76.8377 36.2907 77.0221 35.5321C77.2558 34.5711 77.9512 32.7145 77.9512 32.7145L74.4648 37.278L78.0499 29.3499L76.6415 29.6353C76.6415 29.6353 78.5531 26.9034 79.7384 25.7446C80.8738 24.6347 83.5317 22.8631 83.5317 22.8631L79.7559 23.6354C79.7559 23.6354 84.5825 19.5725 86.962 18.2017C89.7397 16.6013 92.5781 14.9764 92.5781 14.9764L89.7089 14.6407C89.7089 14.6407 96.6381 12.6943 100.193 12.2158C103.117 11.8222 109.037 11.8593 109.037 11.8593L105.685 11.3624C105.685 11.3624 112.204 11.0015 115.467 10.9915C118.058 10.9758 123.236 11.2381 123.236 11.2381L120.246 11.6748C120.246 11.6748 126.683 11.2562 129.82 11.2923C132.213 11.32 136.977 11.8573 136.977 11.8573L136.067 12.9291L142.748 12.2388C142.748 12.2388 145.463 11.9408 146.784 11.6132C147.854 11.3482 149.911 10.535 149.911 10.535L147.541 13.2399L145.469 15.4338L148.182 15.3473L152.16 11.0673L155.769 8.59744L154.749 7.35791Z" fill="#4F3C2F"/>
<path d="M100.902 32.1909C100.902 32.1909 106.402 33.5561 108.757 35.0445C111.791 36.9623 114.487 39.5857 116.422 42.6092C118.022 45.108 118.852 48.0738 119.448 50.9805C119.915 53.257 120.137 55.634 119.851 57.94C119.548 60.3882 118.597 62.7302 117.632 65.0003C116.808 66.9389 115.197 68.5259 114.606 70.5478C114.211 71.9002 114.314 74.7644 114.314 74.7644L114.386 77.4031L111.605 75.1922L112.888 79.0436C112.888 79.0436 111.096 79.0813 110.321 79.4713C109.584 79.8409 108.992 80.4961 108.538 81.1831C108.2 81.6937 107.884 82.9003 107.884 82.9003L122.16 79.4713C122.16 79.4713 125.299 80.4273 126.582 81.3969C128.077 82.528 130.148 85.7476 130.148 85.7476C130.148 85.7476 127.724 85.3348 126.51 85.1415C125.964 85.055 124.87 84.8918 124.87 84.8918L126.154 86.8887L119.45 86.817L107.753 87.031H98.1963L97.4832 84.2494L97.0553 82.8945L96.1994 84.1426C96.1994 84.1426 94.9278 81.6997 93.8459 80.6835C92.7367 79.6417 89.827 78.5177 89.827 78.5177L89.6736 80.0417C89.6736 80.0417 85.8084 75.1381 83.9324 73.0522C82.1657 71.0881 80.1719 69.3222 78.0842 67.7033C76.4689 66.4506 72.9492 64.3512 72.9492 64.3512C72.9492 64.3512 80.9316 67.434 84.3603 69.9142C86.3762 71.3726 89.5667 75.2631 89.5667 75.2631L89.6013 74.1757C89.6013 74.1757 92.8745 75.398 94.3685 76.5614C95.1807 77.1943 96.6619 78.9719 96.6619 78.9719L95.4139 72.2679C95.4139 72.2679 98.4082 73.5346 99.6965 74.5C100.849 75.3637 102.688 77.6168 102.688 77.6168L102.76 75.9051L106.754 78.33C106.754 78.33 106.84 77.0382 107.081 76.2872C107.273 75.6846 107.881 74.3849 107.881 74.3849L109.464 75.9051L107.111 67.9172L111.675 72.2679C111.675 72.2679 112.125 67.0753 113.093 64.6973C113.733 63.1256 115.917 60.4612 115.917 60.4612L115.312 63.8905C115.312 63.8905 117.415 59.4321 117.531 57.0319C117.668 54.2127 115.716 48.7614 115.716 48.7614L117.43 50.476C117.43 50.476 114.526 44.0261 112.784 41.8944C110.231 38.7713 110.064 38.7762 107.962 36.9453C105.768 35.0339 100.902 32.1904 100.902 32.1904L100.902 32.1909Z" fill="#4F3C2F"/>
<path d="M153.594 11.0757C153.594 11.0757 151.959 12.8668 151.401 13.9283C150.645 15.3657 149.968 16.9416 149.903 18.5641C149.872 19.3026 150.034 21.2515 150.034 21.2515L151.614 18.2787L151.186 22.6293C151.186 22.6293 151.565 25.9288 152.256 27.4077C152.852 28.683 154.824 30.7596 154.824 30.7596C154.824 30.7596 151.794 29.2283 150.83 27.907C149.783 26.4743 149.202 22.84 149.202 22.84L148.833 25.0542L147.549 19.0633L148.182 15.3473L150.61 12.0621L153.594 11.0757Z" fill="#4F3C2F"/>
<path d="M164.508 11.2163C164.508 11.2163 163.78 9.71388 162.97 9.27476C162.239 8.87876 161.212 8.63875 160.488 9.04638C159.893 9.38158 159.61 10.2057 159.591 10.8885C159.573 11.5258 159.937 12.1423 160.508 12.4247C161.425 12.8777 162.771 12.6888 163.527 12.2301C163.94 11.9792 164.508 11.2163 164.508 11.2163Z" fill="#4F3C2F"/>
<path d="M154.749 7.35804C154.749 7.35804 157.732 3.99192 159.709 3.05206C161.398 2.24925 163.37 2.20993 165.237 2.08941C166.602 2.00083 169.338 2.26776 169.338 2.26776C169.338 2.26776 171.636 1.23284 172.868 1.05524C174.199 0.863183 176.897 1.23359 176.897 1.23359L174.294 3.65847C174.294 3.65847 176.202 3.09892 177.147 3.26602C178.297 3.46952 179.325 4.18614 180.245 4.90583C180.71 5.26965 181.426 6.22595 181.426 6.22595L179.287 6.29762C179.287 6.29762 180.949 7.51682 181.579 8.31655C182.626 9.64561 183.387 11.209 183.949 12.8049C184.713 14.9773 185.26 19.5879 185.26 19.5879L187.274 23.7353L186.133 24.9835L185.064 26.1423L185.777 26.2319C185.777 26.2319 185.026 28.4627 184.35 29.4058C183.102 31.1493 179.643 33.7919 179.643 33.7919C179.643 33.7919 174.009 37.2153 173.831 37.2153C173.652 37.2153 171.334 38.5703 171.334 38.5703L165.7 36.8942C165.7 36.8942 168.95 36.8503 170.538 36.5449C171.816 36.2989 174.259 35.361 174.259 35.361L179.215 32.0802C179.215 32.0802 181.477 30.2125 182.425 29.1025C182.848 28.6074 183.512 27.4802 183.512 27.4802L181.337 27.5342C181.337 27.5342 183.634 25.441 184.493 24.1643C184.778 23.7408 185.135 22.7736 185.135 22.7736C185.135 22.7736 184.226 21.0888 183.994 20.1705C183.445 18.0028 183.551 15.4445 182.885 13.1821C182.456 11.7288 181.094 9.37159 181.094 9.37159L181.503 11.7471C181.503 11.7471 179.879 8.8483 178.712 7.69739C178.092 7.08595 176.54 6.24559 176.54 6.24559L174.493 5.03967H178.099C178.099 5.03967 176.227 4.41115 174.972 4.48483C173.708 4.5597 171.215 5.03967 171.215 5.03967L173.686 2.39193C173.686 2.39193 171.215 3.02229 171.064 3.02229C170.913 3.02229 169.021 4.20764 169.021 4.20764C169.021 4.20764 165.832 3.70107 164.23 3.77896C162.872 3.84434 161.452 3.95708 160.221 4.53533C158.957 5.12904 156.994 7.20809 156.994 7.20809L155.769 8.59911L154.749 7.35804Z" fill="#4F3C2F"/>
<path d="M172.703 37.7551C172.703 37.7551 171.559 38.4606 171.124 38.9597C169.964 40.2899 169.206 42.0132 168.25 43.496C167.245 45.053 165.239 48.0557 165.239 48.0557L164.785 46.5427L162.617 50.5266L160.499 53.3004V51.485C160.499 51.485 159.707 53.0718 158.734 54.2495C156.758 56.6399 153.809 59.57 153.64 59.7051C153.388 59.9068 150.053 62.8464 148.093 64.1934C146.957 64.974 144.512 66.261 144.512 66.261L142.243 68.3289L141.637 66.2108L139.671 61.3693L143.697 58.0637L142.054 61.9648C142.054 61.9648 142.877 61.8402 143.246 61.6612C145.609 60.5174 149.505 56.881 149.505 56.881C149.505 56.881 147.77 59.7856 146.764 61.1415C146.244 61.8421 146.075 62.0753 146.075 62.0753C146.075 62.0753 149.589 60.2269 152.026 58.0912C154.19 56.1953 156.243 54.1456 158.027 51.8885C159.537 49.9787 161.961 45.7359 161.961 45.7359L162.213 47.8034L164.737 42.9556C164.737 42.9556 164.873 43.6462 164.874 43.9959C164.874 44.377 164.874 44.9163 164.874 44.9163C164.874 44.9163 167.425 40.6624 169.041 38.6244C169.432 38.131 170.337 37.25 170.337 37.25L172.703 37.7551Z" fill="#4F3C2F"/>
<path d="M131.955 33.9351C131.955 33.9351 135.838 38.813 137.246 41.5709C137.851 42.7558 138.43 44.0248 138.571 45.3361C138.747 46.9736 138.41 50.2746 138.41 50.2746C138.41 50.2746 137.895 53.6481 138.284 55.9733C138.811 59.1261 141.637 66.2108 141.637 66.2108L143.276 69.5139L147.059 69.3121C147.059 69.3121 148.47 69.5143 149.025 69.9174C150.29 70.8353 151.673 73.6239 151.723 73.7501C151.774 73.8765 151.9 74.8597 151.9 74.8597L149.378 73.271L147.134 72.5397L145.873 72.666C145.873 72.666 147.243 73.2037 147.815 73.6494C148.906 74.4985 150.538 76.7761 150.538 76.7761L150.942 77.331C150.942 77.331 148.999 77.1366 148.042 76.9526C146.864 76.7261 144.555 76.0618 144.555 76.0618C144.555 76.0618 145.4 76.7574 145.949 77.2047C146.442 77.6059 147.086 77.7838 147.601 78.1558C148.043 78.4757 148.824 79.2472 148.824 79.2472C148.824 79.2472 146.946 79.5704 146 79.5497C144.042 79.5064 142.779 79.181 140.191 78.6703C139.64 78.5622 138.662 77.961 138.662 77.961L135.175 74.1583C135.175 74.1583 131.128 70.5034 128.901 68.9291C127.606 68.0144 126.228 67.3488 125.107 66.294C124.12 65.3657 122.587 63.1037 122.587 63.1037L124.549 63.567L125.424 63.7902C125.424 63.7902 123.808 61.904 123.18 60.8399C122.651 59.9456 122.245 58.9769 121.919 57.9907C121.727 57.4098 121.516 56.2003 121.516 56.2003C121.516 56.2003 122.709 58.044 123.255 58.747C124.53 60.3871 125.834 62.0399 127.416 63.3865C128.458 64.2739 130.87 65.6058 130.87 65.6058L128.021 65.5055L129.683 67.241L137.678 73.7258L136.317 70.9772C136.317 70.9772 137.411 72.0423 138.082 72.3813C138.408 72.5461 139.141 72.6668 139.141 72.6668C139.141 72.6668 138.533 71.0525 138.309 70.2209C137.987 69.0289 137.578 66.5899 137.578 66.5899L140.856 71.0529C140.856 71.0529 140.894 70.0932 140.821 69.6217C140.727 69.0138 140.3 67.8506 140.3 67.8506L141.662 69.7167L141.133 68.3801L138.434 62.6311L136.217 56.2516L135.794 52.9592L136.931 55.43L136.9 53.2996L136.746 50.6789L137.401 52.1919C137.401 52.1919 137.523 47.1916 136.897 44.8038C136.505 43.3091 134.905 40.618 134.905 40.618L131.955 33.9351Z" fill="#4F3C2F"/>
<path d="M73.9586 52.0767L71.2606 58.2429C71.2606 58.2429 73.232 56.4794 73.712 55.2949C74.1161 54.2978 73.9586 52.0767 73.9586 52.0767Z" fill="#4F3C2F"/>
<path d="M77.2287 48.9009L75.0098 55.2551C75.0098 55.2551 76.8406 53.3461 77.2287 52.1285C77.5554 51.1033 77.2287 48.9009 77.2287 48.9009Z" fill="#4F3C2F"/>
<path d="M78.379 42.9106C78.379 42.9106 76.02 46.7666 75.7847 49.4343C75.7426 49.9207 75.3454 51.5978 75.3454 51.5978C75.3454 51.5978 77.8484 48.9881 78.379 47.3233C78.8258 45.9219 78.379 42.9106 78.379 42.9106Z" fill="#4F3C2F"/>
<path d="M163.423 48.5098C163.423 48.5098 164.457 51.4857 165.264 52.9226C166.085 54.3842 168.232 57.0418 168.232 57.0418C168.232 57.0418 174.187 58.0402 174.473 58.0402C174.758 58.0402 176.683 58.5749 176.683 58.5749C176.683 58.5749 179.943 60.7666 181.141 62.2837C181.954 63.3144 182.466 64.5709 182.888 65.8141C183.438 67.4319 183.887 70.8422 183.887 70.8422L181.569 68.346L182.221 70.9797L182.293 72.7789L180.33 70.3835L178.362 68.2783L178.708 70.6759L178.632 72.908C178.632 72.908 177.46 71.6645 177.317 71.5575C177.174 71.451 174.758 68.5598 174.758 68.5598C174.758 68.5598 173.223 68.0934 172.619 67.597C171.605 66.7637 170.337 64.3876 170.337 64.3876C170.337 64.3876 165.82 64.5728 163.561 64.673C162.539 64.7182 161.509 64.9491 160.494 64.816C159.95 64.7443 158.925 64.3169 158.925 64.3169L160.436 63.8992C160.436 63.8992 158.509 63.6801 157.642 63.2827C155.874 62.4725 152.97 59.788 152.97 59.788L154.682 57.149C154.682 57.149 156.223 59.8364 157.535 60.6793C158.545 61.3286 160.049 62.2167 161.208 62.5339C162.503 62.8886 165.237 62.462 165.237 62.462L164.31 63.1041L170.836 62.676L172.94 64.245L171.889 61.8228C171.889 61.8228 172.536 61.9912 173.268 61.8987C173.645 61.8503 175.205 61.4117 175.205 61.4117L173.5 60.1595L174.643 60.0898L176.576 60.3578L173.261 59.361C173.261 59.361 174.901 59.2241 174.758 59.2241C174.615 59.2241 171.785 58.5339 170.265 58.3264C169.145 58.1736 166.878 58.1482 166.878 58.1482L164.025 54.9031L165.095 55.3666C165.095 55.3666 163.153 53.5418 162.42 52.4426C162.02 51.8417 161.508 50.4777 161.508 50.4777L163.423 48.5098Z" fill="#4F3C2F"/>
<path d="M134.498 72.9814C134.498 72.9814 132.948 74.4258 132.073 75.014C131.27 75.5537 129.505 76.369 129.505 76.369C129.505 76.369 131.966 73.6232 131.502 73.8015C131.039 73.9798 129.315 75.1123 128.115 75.5132C126.706 75.9837 123.728 76.2978 123.728 76.2978C123.728 76.2978 126.385 76.7435 126.242 76.8148C126.099 76.8866 124.92 77.4675 124.245 77.7598C123.687 78.0018 117.167 79.5429 117.167 79.5429L121.125 79.935L124.87 80.8622L127.187 80.0776L131.467 77.7598L135.817 74.6575L134.498 72.9814Z" fill="#4F3C2F"/>
<path d="M159.959 3.8725C159.959 3.8725 157.872 1.99808 156.565 1.65973C155.423 1.36419 154.12 1.4488 153.035 1.91175C152.159 2.28562 151.353 2.9818 150.917 3.8283C150.583 4.47526 150.505 5.2867 150.665 5.99671C150.803 6.61551 151.241 7.14645 151.673 7.61059C151.985 7.94505 152.783 8.41746 152.783 8.41746L154.749 7.35842C154.749 7.35842 153.179 7.14161 152.682 6.6019C152.339 6.23011 152.218 5.64163 152.278 5.13951C152.339 4.62406 152.628 4.10078 153.035 3.77796C153.658 3.28332 154.537 3.05029 155.329 3.12228C156.235 3.20451 157.775 4.33249 157.775 4.33249C157.775 4.33249 156.156 4.07502 155.355 4.18177C154.677 4.27136 153.413 4.83745 153.413 4.83745L155.859 5.14028L154.497 6.04782H156.767L159.959 3.8725Z" fill="#4F3C2F"/>
<path d="M183.742 12.5859C183.742 12.5859 185.549 12.9007 186.347 13.3222C187.183 13.7633 187.997 14.355 188.523 15.1408C188.986 15.8347 189.303 16.6961 189.271 17.5299C189.239 18.3616 188.878 19.2095 188.344 19.848C187.985 20.2781 187.447 20.5552 186.918 20.7393C186.41 20.9163 185.313 20.9178 185.313 20.9178L185.234 19.3226C185.234 19.3226 186.345 19.408 186.739 19.0634C187.231 18.6324 187.603 17.9695 187.63 17.3161C187.656 16.6877 187.351 16.0242 186.917 15.5689C186.393 15.0183 184.849 14.6061 184.849 14.6061L183.993 14.4994L184.528 15.6291C184.528 15.6291 185.272 15.7433 185.587 15.9317C185.97 16.1603 186.293 16.5061 186.52 16.8898C186.624 17.0637 186.696 17.4698 186.696 17.4698C186.696 17.4698 186.09 17.0032 185.738 16.8646C185.571 16.7992 185.209 16.7644 185.209 16.7644C185.209 16.7644 185.57 17.2392 185.637 17.5209C185.683 17.709 185.612 18.2269 185.612 18.1009C185.612 17.9746 184.83 17.1426 184.83 17.1426L183.948 15.5037L183.436 13.4847L183.742 12.5859Z" fill="#4F3C2F"/>
<path d="M60.3178 67.1187L47.5335 70.5479L18.889 75.4899C18.889 75.4899 9.03786 76.6454 4.56658 78.6169C3.02176 79.2981 1.2811 80.0828 0.4312 81.5418C-0.0790298 82.4179 -0.0752713 83.5748 0.128608 84.5676C0.422385 85.9975 1.13698 87.4523 2.24683 88.4004C4.7214 90.514 8.20531 91.2559 11.4252 91.7288C16.7558 92.5119 22.2075 91.4094 27.563 90.8211C31.8979 90.3451 36.2156 89.6465 40.4734 88.703C46.823 87.2961 61.0239 83.0802 61.0239 83.0802L61.5787 80.6846L59.1326 79.4237L43.3179 77.2674L55.2495 81.088C53.5095 82.0213 46.0207 83.7607 46.0207 83.7607L30.3082 80.9784L42.4906 84.5676L30.6899 87.2908L15.5101 85.4249C15.5101 85.4249 26.3022 87.8456 25.8989 87.9465C25.4954 88.0467 19.4156 88.9201 15.7623 88.9049C12.6472 88.8898 9.3529 89.0071 6.4829 87.7953C4.61091 87.005 2.18796 85.945 1.74248 83.9624C1.52151 82.9795 2.32934 81.9396 3.0537 81.2391C4.61204 79.7324 6.93586 79.2648 9.00456 78.6169C15.9009 76.4571 23.1713 75.7467 30.2863 74.4814C36.724 73.3365 43.3127 72.9585 49.6517 71.3548C53.2157 70.4532 60.8474 68.3794 60.8474 68.3794L60.3178 67.1187Z" fill="#4F3C2F"/>
<path d="M72.7348 81.6108C73.6507 78.8085 80.8259 81.1852 83.932 81.2541C87.038 81.3227 87.9038 81.3759 90.0297 81.3607C92.1559 81.3456 95.9656 81.0919 95.9656 81.0919L98.9978 85.0266C98.9978 85.0266 92.8759 84.735 88.4556 84.5692C83.8988 84.3984 71.7655 83.3064 71.7655 83.3064L72.7348 81.6108Z" fill="#4F3C2F"/>
<path d="M177.86 16.2109C177.86 16.2109 179.222 15.7198 179.903 15.8445C180.892 16.0255 181.63 16.5362 181.783 17.53C181.899 18.2763 181.476 18.9758 180.784 19.2775C180.08 19.5843 179.228 19.4813 178.654 18.9703C177.94 18.3336 177.86 16.2109 177.86 16.2109Z" fill="#4F3C2F"/>
<path d="M160.14 10.0873C160.582 10.4026 161.098 10.4369 161.293 10.164C161.487 9.89109 161.287 9.41438 160.846 9.09913C160.404 8.78388 159.889 8.74946 159.694 9.02235C159.499 9.29523 159.699 9.77206 160.14 10.0873Z" fill="white"/>
<path d="M178.532 16.5826C178.974 16.8978 179.49 16.9321 179.684 16.6592C179.879 16.3863 179.679 15.9095 179.238 15.5942C178.796 15.279 178.28 15.2447 178.085 15.5176C177.891 15.7905 178.091 16.2673 178.532 16.5826Z" fill="white"/>
<path d="M168.072 13.7413C167.205 13.7885 166.649 14.0863 166.199 14.6062C165.899 14.953 165.81 15.4667 165.807 15.9255C165.807 16.4937 165.898 17.1365 166.271 17.5658C166.424 17.7428 166.77 17.8867 166.913 17.8511C167.056 17.8166 167.376 17.0845 167.376 17.0845L167.911 17.4946C167.911 17.4946 167.645 18.0746 167.626 18.3859C167.608 18.7001 167.669 19.0293 167.804 19.3131C168.097 19.9225 169.118 20.8577 169.118 20.8577C169.118 20.8577 170.636 20.6317 171.299 20.276C171.662 20.0809 171.899 19.7895 172.083 19.4202C172.216 19.1536 172.297 18.5644 172.297 18.5644L172.975 18.4927L172.832 19.4913C172.832 19.4913 173.408 19.6161 173.652 19.5258C174.092 19.3661 174.578 19.1013 174.864 18.7057C175.197 18.2452 175.424 17.6254 175.328 17.0653C175.215 16.4056 174.756 15.8816 174.257 15.4502C173.387 14.6966 172.206 14.2802 171.12 13.9987C169.948 13.7015 169.268 13.675 168.071 13.7402L168.072 13.7413Z" fill="#4F3C2F"/>
<path d="M169.394 20.3638C169.394 20.3638 168.238 21.095 167.582 21.2368C167.088 21.3433 166.565 21.2745 166.064 21.2022C165.513 21.1232 164.452 20.7639 164.452 20.7639L165.136 21.716C165.136 21.716 163.402 21.6983 162.577 21.4638C161.825 21.2496 160.472 20.4299 160.472 20.4299C160.472 20.4299 161.361 21.5049 161.833 21.8671C162.363 22.274 162.744 22.4558 163.397 22.5985C164.12 22.7565 164.876 22.7668 165.616 22.7248C166.797 22.6061 167.879 22.4242 168.868 21.7918L169.394 20.3638Z" fill="#4F3C2F"/>
<path d="M169.346 20.3472C169.346 20.3472 169.796 21.6393 170.22 22.1581C170.541 22.55 170.993 22.8217 171.43 23.077C171.911 23.3573 172.964 23.7372 172.964 23.7372L171.836 24.0558C171.836 24.0558 173.205 25.1223 173.996 25.4522C174.717 25.7527 176.287 25.9539 176.287 25.9539C176.287 25.9539 174.922 26.2413 174.326 26.231C173.659 26.2152 173.247 26.1244 172.648 25.8299C171.983 25.5029 171.386 25.0404 170.833 24.5471C169.982 23.7184 169.249 22.9023 168.868 21.7916L169.346 20.3472Z" fill="#4F3C2F"/>
<path d="M171.619 24.9328C171.619 24.9328 170.955 26.7753 170.358 27.5299C169.994 27.9891 169.629 28.4704 169.121 28.7466C168.516 29.0753 167.762 29.1817 167.105 29.1942C166.282 29.2092 165.367 28.9467 164.727 28.4108C164.207 27.9746 163.964 27.2654 163.76 26.6173C163.581 26.0448 163.551 25.4285 163.558 24.8285C163.573 24.0711 163.866 22.5773 163.866 22.5773L164.646 22.3431C164.646 22.3431 164.232 24.5071 164.412 25.5706C164.535 26.2957 164.757 27.0857 165.286 27.5962C165.466 27.7694 165.883 27.9686 165.984 27.8677C166.054 27.7982 167.768 23.5529 168.596 21.7826C168.818 21.4886 169.081 21.9181 169.081 21.9181L166.811 28.1853C166.811 28.1853 167.366 28.3383 167.644 28.2995C168.187 28.2215 168.56 28.1403 169.148 27.6309C170.148 26.7624 171.114 24.1763 171.114 24.1763L171.619 24.9328Z" fill="#4F3C2F"/>
<path d="M10.0842 77.7887C11.0033 77.9104 26.8918 79.0764 26.8918 79.0764L16.6979 76.5649L10.0842 77.7887Z" fill="#4F3C2F"/>
<path d="M34.2405 73.4519C35.1598 73.5738 51.0483 74.7397 51.0483 74.7397L40.2795 72.708L34.2405 73.4519Z" fill="#4F3C2F"/>
<path d="M12.5345 88.8542L18.0821 88.9543C18.0821 88.9543 22.0334 84.7549 24.2346 82.9028C25.1841 82.1039 27.2605 80.7342 27.2605 80.7342L24.146 84.9703L23.3773 86.1302L30.6898 87.2901C30.6898 87.2901 32.5936 84.7333 33.7157 83.6088C35.3939 81.9266 39.2126 79.07 39.2126 79.07L35.8337 84.0121C35.3203 84.7485 34.7009 85.8939 34.2992 86.6955L41.3307 84.7183L31.547 81.3897L46.0207 83.7601L50.5594 75.9434L49.3996 82.7514L55.2495 81.0872L50.2064 79.0195L57.0146 79.3221L57.7206 83.2556C57.7206 83.2556 39.3638 87.5926 38.9603 87.5926C38.687 87.5926 25.5581 88.0532 25.5581 88.0532L22.3448 87.0589L20.9062 88.7021L12.7363 90.4169L12.5345 88.8542Z" fill="#4F3C2F"/>
<path d="M2.87258 79.3249C3.58216 79.4198 15.8477 80.319 15.8477 80.319L7.97829 78.3804L2.87258 79.3249Z" fill="#4F3C2F"/>
<path d="M149.687 53.5381L144.923 58.2929C144.923 58.2929 147.402 57.3712 148.282 56.4438C149.022 55.6632 149.687 53.5381 149.687 53.5381Z" fill="#4F3C2F"/>
<path d="M153.891 51.7759L149.505 56.8807C149.505 56.8807 151.906 55.7723 152.712 54.7806C153.391 53.9456 153.891 51.7759 153.891 51.7759Z" fill="#4F3C2F"/>
<path d="M157.15 46.6201C157.15 46.6201 153.546 49.348 152.352 51.7454C152.135 52.1826 151.153 53.5992 151.153 53.5992C151.153 53.5992 154.436 52.0836 155.538 50.7276C156.466 49.5864 157.15 46.6201 157.15 46.6201Z" fill="#4F3C2F"/>
<path d="M85.4143 25.7974L90.178 21.0425C90.178 21.0425 87.6987 21.9643 86.8193 22.8915C86.0788 23.6722 85.4143 25.7974 85.4143 25.7974Z" fill="#4F3C2F"/>
<path d="M81.2101 27.5595L85.5966 22.4546C85.5966 22.4546 83.195 23.563 82.3889 24.555C81.7103 25.3898 81.2101 27.5595 81.2101 27.5595Z" fill="#4F3C2F"/>
<path d="M77.9512 32.7159C77.9512 32.7159 81.5557 29.9879 82.7491 27.5904C82.9666 27.1531 83.9483 25.7368 83.9483 25.7368C83.9483 25.7368 80.6649 27.2522 79.5628 28.608C78.635 29.7495 77.9512 32.7159 77.9512 32.7159Z" fill="#4F3C2F"/>
<path d="M154.933 77.6069H176.87C177.318 77.6069 177.682 77.9703 177.682 78.4186V89.0477C177.682 89.496 177.318 89.8594 176.87 89.8594H154.933C154.485 89.8594 154.121 89.496 154.121 89.0477V78.4186C154.121 77.9703 154.485 77.6069 154.933 77.6069Z" fill="#4F3C2F"/>
<path d="M160.712 83.7749H180.26C180.708 83.7749 181.071 84.1382 181.071 84.5865V89.0478C181.071 89.4961 180.708 89.8594 180.26 89.8594H160.712C160.264 89.8594 159.9 89.4961 159.9 89.0478V84.5865C159.9 84.1382 160.264 83.7749 160.712 83.7749Z" fill="#4F3C2F"/>
<path d="M276.207 84.7334H278.03V89.6585H276.207V84.7334Z" fill="#4F3C2F"/>
<path d="M165.901 89.8596C159.395 89.8596 154.121 84.5855 154.121 78.0795C154.121 71.5735 159.395 66.2993 165.901 66.2993C172.407 66.2993 177.682 71.5735 177.682 78.0795C177.682 84.5855 172.407 89.8596 165.901 89.8596Z" fill="#4F3C2F"/>
<path d="M180.501 84.7339H277.218C277.666 84.7339 278.03 85.0972 278.03 85.5455V87.5707C278.03 88.019 277.666 88.3823 277.218 88.3823H180.501C180.053 88.3823 179.69 88.019 179.69 87.5707V85.5455C179.69 85.0972 180.053 84.7339 180.501 84.7339Z" fill="#4F3C2F"/>
<path d="M165.901 87.3449C160.784 87.3449 156.636 83.1967 156.636 78.0795C156.636 72.9623 160.784 68.814 165.901 68.814C171.019 68.814 175.167 72.9623 175.167 78.0795C175.167 83.1967 171.019 87.3449 165.901 87.3449Z" fill="#4F3C2F" stroke="#FBF5E8" stroke-width="1.01073" stroke-linecap="square"/>
<path d="M165.901 85.2177C161.959 85.2177 158.763 82.0217 158.763 78.0795C158.763 74.1372 161.959 70.9414 165.901 70.9414C169.844 70.9414 173.04 74.1372 173.04 78.0795C173.04 82.0217 169.844 85.2177 165.901 85.2177Z" fill="#FBF3E5" stroke="#FBF5E8" stroke-width="0.778661" stroke-linecap="square"/>
<path d="M207.403 84.7163V86.7988" stroke="#FBF5E8"/>
<path d="M204.308 84.7163V86.7988" stroke="#FBF5E8"/>
<path d="M201.213 84.7163V86.7988" stroke="#FBF5E8"/>
<path d="M222.878 84.7163V86.7988" stroke="#FBF5E8"/>
<path d="M219.783 84.7163V86.7988" stroke="#FBF5E8"/>
<path d="M216.688 84.7163V86.7988" stroke="#FBF5E8"/>
<path d="M213.593 84.7163V86.7988" stroke="#FBF5E8"/>
<path d="M210.498 84.7163V86.7988" stroke="#FBF5E8"/>
<path d="M198.118 84.7163V86.7988" stroke="#FBF5E8"/>
<path d="M195.023 84.7163V86.7988" stroke="#FBF5E8"/>
<path d="M191.928 84.7163V86.7988" stroke="#FBF5E8"/>
<path d="M188.833 84.7163V86.7988" stroke="#FBF5E8"/>
<path d="M185.738 84.7163V86.7988" stroke="#FBF5E8"/>
<path d="M182.643 84.7163V86.7988" stroke="#FBF5E8"/>
<path d="M166.675 77.0781C165.801 77.0781 165.109 77.2812 164.598 77.6874C164.087 78.0936 163.831 78.6548 163.831 79.3711C163.831 79.8428 163.978 80.273 164.27 80.6617C164.563 81.0505 165.03 81.4042 165.672 81.7231C164.895 82.0943 164.342 82.4852 164.015 82.8958C163.687 83.302 163.523 83.7737 163.523 84.3109C163.523 85.1058 163.801 85.7413 164.355 86.2174C164.91 86.6891 165.67 86.9249 166.635 86.9249C167.657 86.9249 168.443 86.7022 168.994 86.2567C169.544 85.8068 169.819 85.1713 169.819 84.3502C169.819 83.2539 169.151 82.4001 167.815 81.7886C168.417 81.4479 168.85 81.081 169.112 80.688C169.374 80.2905 169.505 79.8472 169.505 79.358C169.505 78.6636 169.249 78.111 168.738 77.7005C168.223 77.2856 167.535 77.0781 166.675 77.0781ZM168.745 84.3764C168.745 84.9005 168.564 85.3089 168.201 85.6016C167.834 85.8942 167.321 86.0405 166.661 86.0405C166.011 86.0405 165.504 85.8876 165.142 85.5819C164.779 85.2762 164.598 84.8569 164.598 84.324C164.598 83.9004 164.768 83.5247 165.109 83.1972C165.449 82.8652 166.043 82.5442 166.891 82.2341C167.542 82.5136 168.013 82.8237 168.306 83.1644C168.599 83.5007 168.745 83.9047 168.745 84.3764ZM166.688 77.9625C167.234 77.9625 167.662 78.0936 167.972 78.3556C168.282 78.6177 168.437 78.9671 168.437 79.4039C168.437 79.8057 168.308 80.1507 168.05 80.439C167.793 80.7273 167.317 81.0155 166.622 81.3038C165.998 81.0417 165.556 80.76 165.299 80.4587C165.037 80.1573 164.906 79.8057 164.906 79.4039C164.906 78.9627 165.065 78.6133 165.384 78.3556C165.698 78.0936 166.133 77.9625 166.688 77.9625Z" fill="#4F3C2F"/>
<path d="M162.721 83.7266L164.304 79.5909H164.33C164.3 79.9185 164.285 80.3079 164.285 80.7589V83.7266H164.786V79.0612H163.969L162.492 82.9097H162.466L160.976 79.0612H160.165V83.7266H160.708V80.7206C160.708 80.3759 160.693 80.0015 160.663 79.5973H160.689L162.284 83.7266H162.721Z" fill="#4F3C2F"/>
<path d="M250.523 84.7163V86.7988" stroke="#FBF5E8"/>
<path d="M247.428 84.7163V86.7988" stroke="#FBF5E8"/>
<path d="M244.333 84.7163V86.7988" stroke="#FBF5E8"/>
<path d="M265.998 84.7163V86.7988" stroke="#FBF5E8"/>
<path d="M262.903 84.7163V86.7988" stroke="#FBF5E8"/>
<path d="M259.808 84.7163V86.7988" stroke="#FBF5E8"/>
<path d="M256.713 84.7163V86.7988" stroke="#FBF5E8"/>
<path d="M253.618 84.7163V86.7988" stroke="#FBF5E8"/>
<path d="M241.238 84.7163V86.7988" stroke="#FBF5E8"/>
<path d="M238.143 84.7163V86.7988" stroke="#FBF5E8"/>
<path d="M235.048 84.7163V86.7988" stroke="#FBF5E8"/>
<path d="M231.953 84.7163V86.7988" stroke="#FBF5E8"/>
<path d="M228.858 84.7163V86.7988" stroke="#FBF5E8"/>
<path d="M225.763 84.7163V86.7988" stroke="#FBF5E8"/>
<path d="M275.113 84.7163V86.7988" stroke="#FBF5E8"/>
<path d="M272.018 84.7163V86.7988" stroke="#FBF5E8"/>
<path d="M268.923 84.7163V86.7988" stroke="#FBF5E8"/>
</svg>
