<svg width="21" height="21" viewBox="0 0 21 21" fill="none" xmlns="http://www.w3.org/2000/svg">
<rect width="21" height="21" fill="#E5E5E5"/>
<g clip-path="url(#clip0)">
<rect width="1300" height="6474" transform="translate(-1112 -41)" fill="white"/>
<rect x="-1112" y="-41" width="1300" height="80" fill="white"/>
<circle cx="10.5" cy="10.5" r="10" stroke="#4C9F35"/>
<path d="M12.048 10.5361C12.048 11.3688 11.3688 12.048 10.5361 12.048C9.70335 12.048 9.02418 11.3688 9.02418 10.5361C9.02418 9.70335 9.70335 9.02418 10.5361 9.02418C11.3688 9.02418 12.048 9.70335 12.048 10.5361ZM12.863 10.5361C12.863 9.2486 11.8236 8.20917 10.5361 8.20917C9.2486 8.20917 8.20917 9.2486 8.20917 10.5361C8.20917 11.8236 9.2486 12.863 10.5361 12.863C11.8236 12.863 12.863 11.8236 12.863 10.5361ZM13.5008 8.11467C13.5008 7.81347 13.2587 7.57133 12.9575 7.57133C12.6563 7.57133 12.4142 7.81347 12.4142 8.11467C12.4142 8.41587 12.6563 8.65801 12.9575 8.65801C13.2587 8.65801 13.5008 8.41587 13.5008 8.11467ZM10.5361 6.81538C11.1975 6.81538 12.615 6.76223 13.2114 6.99846C13.4182 7.08114 13.5717 7.18154 13.7312 7.341C13.8906 7.50046 13.991 7.65402 14.0737 7.86072C14.3099 8.45722 14.2568 9.87462 14.2568 10.5361C14.2568 11.1975 14.3099 12.615 14.0737 13.2114C13.991 13.4182 13.8906 13.5717 13.7312 13.7312C13.5717 13.8906 13.4182 13.991 13.2114 14.0737C12.615 14.3099 11.1975 14.2568 10.5361 14.2568C9.87462 14.2568 8.45721 14.3099 7.86072 14.0737C7.65401 13.991 7.50046 13.8906 7.341 13.7312C7.18154 13.5717 7.08114 13.4182 6.99846 13.2114C6.76223 12.615 6.81538 11.1975 6.81538 10.5361C6.81538 9.87462 6.76223 8.45722 6.99846 7.86072C7.08114 7.65402 7.18154 7.50046 7.341 7.341C7.50046 7.18154 7.65401 7.08114 7.86072 6.99846C8.45721 6.76223 9.87462 6.81538 10.5361 6.81538ZM15.0718 10.5361C15.0718 9.91006 15.0777 9.28994 15.0423 8.66392C15.0068 7.9375 14.8415 7.29376 14.3099 6.76223C13.7784 6.2307 13.1347 6.06533 12.4082 6.0299C11.7822 5.99446 11.1621 6.00037 10.5361 6.00037C9.91006 6.00037 9.28994 5.99447 8.66392 6.0299C7.9375 6.06533 7.29375 6.2307 6.76222 6.76223C6.2307 7.29376 6.06533 7.9375 6.0299 8.66392C5.99447 9.28994 6.00037 9.91006 6.00037 10.5361C6.00037 11.1621 5.99447 11.7822 6.0299 12.4082C6.06533 13.1347 6.2307 13.7784 6.76222 14.3099C7.29375 14.8415 7.9375 15.0068 8.66392 15.0423C9.28994 15.0777 9.91006 15.0718 10.5361 15.0718C11.1621 15.0718 11.7822 15.0777 12.4082 15.0423C13.1347 15.0068 13.7784 14.8415 14.3099 14.3099C14.8415 13.7784 15.0068 13.1347 15.0423 12.4082C15.0777 11.7822 15.0718 11.1621 15.0718 10.5361Z" fill="#4C9F35"/>
</g>
<defs>
<clipPath id="clip0">
<rect width="1300" height="6474" fill="white" transform="translate(-1112 -41)"/>
</clipPath>
</defs>
</svg>
