<svg width="28" height="23" viewBox="0 0 28 23" fill="none" xmlns="http://www.w3.org/2000/svg">
<path fill-rule="evenodd" clip-rule="evenodd" d="M19.3899 7.23818C20.0933 11.1885 17.6367 15.5684 13.2649 16.0705C11.7303 16.2466 10.215 15.8467 8.96601 14.9536C7.71705 14.0603 6.7303 12.5146 6.75646 10.7102L10.7039 10.7685C10.6984 11.1938 10.8535 11.4519 11.2619 11.7441C11.6702 12.0361 12.3249 12.2059 12.8165 12.1496C14.6725 11.9364 15.8406 9.82697 15.5028 7.92946C15.0046 5.13088 11.9157 3.46966 9.12346 4.07135C5.40734 4.87221 3.26206 8.95179 4.14672 12.6335C5.02647 16.2946 8.54178 18.9055 12.3339 18.9973L12.2405 22.9416C6.71768 22.8083 1.63679 19.0789 0.309232 13.5549C-1.06742 7.82589 2.25158 1.51342 8.29045 0.212047C13.13 -0.830881 18.4657 2.04618 19.39 7.23861L19.3899 7.23818Z" fill="#5CB544"/>
<path d="M27.0359 19.0073H12.0935V22.9327H27.0359V19.0073Z" fill="#5CB544"/>
</svg>
